<?xml version="1.0" encoding="utf-8"?>
<!-- Generator: Adobe Illustrator 21.0.0, SVG Export Plug-In . SVG Version: 6.00 Build 0)  -->
<svg version="1.2" baseProfile="tiny" id="svg2" xmlns:svg="http://www.w3.org/2000/svg"
	 xmlns="http://www.w3.org/2000/svg" xmlns:xlink="http://www.w3.org/1999/xlink" x="0px" y="0px" width="900px" height="900px"
	 viewBox="0 0 900 900" overflow="inherit" xml:space="preserve">
<path d="M417,361.8c-30.2-1.7-61-13.9-87.7-32.7c33.2,3.6,67.3-1.3,97.8-15.2c18.9-9.7,36.6-23,52.3-39.1
	c23.3,8.4,45.5,21.5,64.8,38.3c-17.4-18.1-37.7-33-59.5-43.8c17.3-18.8,32-40.9,43.1-64.9c-13,23.1-29.9,44.6-49.4,62
	c-19-8.6-39.1-14.1-59.2-15.8c14.4-16.4,26.7-35.5,36.5-56.3c24.4-1.4,49,2,72.1,10.1c-21.7-10.1-45.1-16-68.7-17.4
	c10.8-24.6,18.1-51.3,21.5-78.3c-5.4,26.9-15.1,53.9-28.3,78c-20.4-0.5-40.8,2.4-60.3,8.8c8.7-21.1,14.7-44,17.9-67.5
	c22.5-11.1,46.7-17.7,70.7-19.3c-23.3-0.8-47.1,3-69.7,11.1c2.9-27.4,2-55.4-2.7-82.1c2.8,27.4,1.6,56.6-3.7,84.6
	c-19.3,7.7-37.7,18.6-54,32.4c2-23.4,0.9-47.3-3-70.6c17.9-19.4,38.7-35.3,60.7-46.4C386,46.4,364.9,59.5,346,76.1
	c-5.3-26.9-14.3-52.9-26.6-76.1c10.6,24.7,18.1,52.6,21.2,81c-15.9,15-30,32.5-41.3,52c-4.9-22.8-12.9-44.8-23.4-65.1
	c11.1-25.4,26-48.6,43.5-67.9c-18.3,16.9-34.4,37.7-47.2,60.9c-12.8-23.2-28.9-44-47.3-60.9c17.2,18.9,32.4,42.2,43.7,67.6
	C258,88,249.9,110.1,245,133c-11.3-19.4-25.3-36.9-41.1-51.8c3-28.3,10.2-56.1,21-81.2c-12.3,23.2-21.3,49.2-26.6,76.1
	c-18.9-16.6-40.1-29.8-62.2-38.3c21.7,10.9,42.8,26.7,60.8,46.1c-4,23.4-5.1,47.4-3,70.9c-16.3-13.7-34.6-24.6-53.8-32.3
	c-5.4-27.8-6.8-56.8-4-84.7c-4.7,26.7-5.6,54.7-2.7,82.1c-22.6-8.1-46.3-12-69.7-11.2c23.6,1.6,48,8,70.6,19
	c3.1,23.6,9.1,46.6,17.9,67.8c-19.3-6.4-39.7-9.3-60-8.8c-13.2-23.9-23-50.6-28.5-78c3.4,27,10.7,53.7,21.5,78.2
	c-23.6,1.4-47.1,7.3-68.8,17.4c22.6-7.9,47.5-11.7,71.9-10.4c9.9,20.9,22.2,40.1,36.7,56.6c-20,1.7-40,7.1-59,15.7
	c-19.4-17.2-36.5-38.4-49.6-61.8c11.1,24,25.8,46.1,43.1,64.9C37.8,280,17.4,294.9,0,313.1c18.9-16.5,41.2-29.9,64.6-38.5
	c15.8,16.2,33.7,29.6,52.7,39.4c29.8,14.3,64.3,19,97.4,15.2c-28.5,19.9-61.5,31.9-94.2,32.8c-42.7-0.8-86.2-19-120.5-48.9
	c34.6,36,80.6,59.3,126.8,62.7c46.9,2.3,97.2-18.8,134.5-51.9l10.8-10.8l0,0l0,0l0,0l0,0l0,0l0,0l0,0l0,0l0,0l10.8,10.8
	c37.9,33.6,87.1,53.1,134.6,51.9c46.2-3.5,92.1-26.7,126.7-62.7C508.7,344.2,461.5,364.3,417,361.8z M96.8,194.6
	c18.6,1.9,36.7,6.7,53.4,14.9c4.2,2.1,8.4,4.4,12.4,6.9c10,17.4,22.3,33.4,36.2,47.5c-16.9-6.7-34.5-11-52.1-12.7
	c-6.1-4.4-12-9.2-17.6-14.4C117,224.4,106.2,210.1,96.8,194.6z M115.3,298.4c-15-6.7-29.3-15.7-42.7-26.6c18-5.7,36.5-8.4,54.5-7.4
	c4.6,0.3,9.1,0.8,13.7,1.5c21.3,18.2,46.5,31.5,72.5,39.4C180.8,312.5,146.3,310.6,115.3,298.4z M172.4,204.7
	c-4.5-6.6-8.6-13.5-12.3-20.6c-7.8-16.4-13.8-34.1-18-52.4c16.9,9.2,32.6,21,45.8,35.3c3.4,3.6,6.6,7.4,9.7,11.4
	c4.3,20.3,11.2,40.3,20.1,59.1C203.8,224.4,188.5,213.3,172.4,204.7z M210.2,171.4c-2.3-8-4.1-16.1-5.5-24.3
	c-2.5-18.5-3-37.5-1.6-56.5c13.2,15.4,24.5,32.7,32.7,51.5c2.1,4.7,4,9.6,5.8,14.6c-1.9,20.8-1.3,42.4,1.6,63.5
	C233.8,202.4,222.8,185.9,210.2,171.4z M272.1,214.3c-3.5-20.5-9.1-40.4-16.7-59.1c0.2-8.4,0.8-16.8,1.9-25c3-18.4,8.2-36.5,15-53.7
	c7.9,19.7,13.4,40.5,15.7,61.5c0.6,5.3,1,10.6,1.1,16C281.2,172.7,275.6,193.2,272.1,214.3z M423.7,264.3c16,0.3,32.2,3.1,47.9,8
	c-15.2,12.5-31.8,22.5-49.1,28.7c-28.9,10.5-61.4,11.3-92,4.3c25.7-7.8,50.3-21.1,71.8-38.9C409.4,265.2,416.6,264.5,423.7,264.3z
	 M400.3,206.7c15.1-6.1,31.1-10,47.3-11.7c-10.7,17.8-23.3,33.8-37.7,46.6c-3.6,3.2-7.4,6.3-11.3,9.2c-17.9,1.4-35.9,5.9-53.3,12.9
	c13.4-13.8,25.4-29.4,35.5-46.4C387.1,213.3,393.6,209.7,400.3,206.7z M302.6,158.1c2.7-7.8,5.7-15.4,9.1-22.8
	c8.2-16.1,18.3-31,29.8-44.5c1.7,21.7,0.7,43.4-3.2,64c-1,5.2-2.2,10.4-3.6,15.5c-12.9,14.5-24.3,31.5-33.7,49.9
	C303.7,199.6,304.3,178.6,302.6,158.1z M346.2,179.6c4.8-6.3,9.9-12.2,15.2-17.7c12.4-11.8,26.3-21.8,41.1-29.9
	c-4.8,21-12,41.1-21.8,58.9c-2.5,4.5-5.1,8.9-7.9,13.1c-16.4,8.5-32,19.9-46.3,33.4C335,219.1,341.7,199.6,346.2,179.6z"/>
</svg>
