<?xml version="1.0" encoding="utf-8"?>
<!-- Generator: Adobe Illustrator 21.0.0, SVG Export Plug-In . SVG Version: 6.00 Build 0)  -->
<svg version="1.2" baseProfile="tiny" id="svg2" xmlns:svg="http://www.w3.org/2000/svg"
	 xmlns="http://www.w3.org/2000/svg" xmlns:xlink="http://www.w3.org/1999/xlink" x="0px" y="0px" width="900px" height="900px"
	 viewBox="0 0 900 900" overflow="inherit" xml:space="preserve">
<style type="text/css">
	.st0{fill:#FFFFFF;stroke:#000000;stroke-width:0.172;}
	.st1{fill:#FFFFFF;stroke:#000000;}
	.st2{fill:#CC7226;stroke:#000000;}
	.st3{fill:#CC7226;}
	.st4{fill:#E87F3A;}
	.st5{fill:#EA8C4D;}
	.st6{fill:#EC9961;}
	.st7{fill:#EEA575;}
	.st8{fill:#F1B288;}
	.st9{fill:#F3BF9C;}
	.st10{fill:#F5CCB0;}
	.st11{fill:#F8D8C4;}
	.st12{fill:#FAE5D7;}
	.st13{fill:#FCF2EB;}
	.st14{fill:#FFFFFF;}
	.st15{fill:#CCCCCC;}
	.st16{fill:#E5668C;}
	.st17{fill:#B23259;}
	.st18{fill:#A5264C;}
	.st19{fill:#FF727F;stroke:#000000;}
	.st20{fill:#FFFFCC;stroke:#000000;stroke-width:0.5;}
	.st21{fill:#CC3F4C;}
	.st22{stroke:#A51926;stroke-width:2;}
	.st23{stroke:#A5264C;stroke-width:2;}
	.st24{fill:#B2B2B2;}
	.st25{fill:#E5E5B2;}
	.st26{fill:#EA8E51;}
	.st27{fill:#EFAA7C;}
	.st28{fill:#F4C6A8;}
	.st29{fill:#F9E2D3;}
	.st30{fill:#99CC32;}
	.st31{fill:#659900;}
	.st32{fill:#EB955C;}
	.st33{fill:#F2B892;}
	.st34{fill:#F8DCC8;}
	.st35{fill:#323232;}
	.st36{fill:#666666;}
	.st37{fill:#999999;}
	.st38{fill:#992600;}
	.st39{fill:none;stroke:#4C0000;}
	.st40{fill:#4C0000;}
	.st41{fill:#E59999;}
	.st42{fill:#B26565;}
	.st43{fill:#FFFFFF;stroke:#000000;stroke-width:0.1;}
	.st44{stroke:#000000;}
</style>
<path id="path6" class="st0" d="M58.6,224.1c0,0,0.1,1.6-0.6,1.6c-0.7,0-14.8-41.1-32.3-39.2C25.7,186.5,40.9,180.2,58.6,224.1z"/>
<path id="path10" class="st0" d="M61.6,221.5c0,0-0.5,1.6-1.1,1.3c-0.7-0.3,0.1-43.7-17-47.8C43.4,175,59.9,174.2,61.6,221.5z"/>
<path id="path14" class="st0" d="M85.1,257.7c0,0,1.4,0.8,1,1.4c-0.4,0.6-42.4-10.4-50.5,5.3C35.6,264.4,38.7,248.3,85.1,257.7z"/>
<path id="path18" class="st0" d="M82.7,266.4c0,0,1.6,0.3,1.4,1c-0.2,0.7-43.5,3.5-46.2,21C37.8,288.4,35.7,272.1,82.7,266.4z"/>
<path id="path22" class="st0" d="M79.1,261.7c0,0,1.5,0.6,1.2,1.2c-0.3,0.6-43.6-2.9-48.8,14C31.5,276.9,31.8,260.4,79.1,261.7z"/>
<path id="path26" class="st0" d="M70,246.1c0,0,1.1,1.2,0.6,1.6c-0.5,0.4-37.9-21.6-50-8.8C20.5,239,28,224.3,70,246.1z"/>
<path id="path30" class="st0" d="M63.5,249.7c0,0,1.2,1,0.8,1.5c-0.5,0.5-40.1-17.2-50.7-3.1C13.6,248.2,19.3,232.8,63.5,249.7z"/>
<path id="path34" class="st0" d="M61.3,253.2c0,0,1.4,0.9,1,1.4c-0.4,0.6-42.1-11.6-50.6,3.9C11.6,258.5,15.2,242.4,61.3,253.2z"/>
<path id="path38" class="st0" d="M70.5,253.7c0,0,1,1.3,0.4,1.7c-0.6,0.4-34.8-26.3-48.5-15.1C22.4,240.3,31.6,226.7,70.5,253.7z"/>
<path id="path42" class="st0" d="M53.6,229c0,0,0.5,1.5-0.2,1.7c-0.7,0.2-25.1-35.7-41.5-29.2C11.9,201.5,24.9,191.4,53.6,229z"/>
<path id="path46" class="st0" d="M54.2,234.9c0,0,0.8,1.4,0.2,1.7s-32.2-29.5-46.9-19.6C7.5,217.1,18,204.4,54.2,234.9z"/>
<path id="path50" class="st0" d="M54.1,238.7c0,0,1,1.3,0.4,1.7c-0.6,0.4-34.8-26.3-48.5-15.1C5.9,225.2,15.2,211.6,54.1,238.7z"/>
<path id="path54" class="st1" d="M52.2,240.1c0.4,5.2,1.3,10.8,2.8,13.4c0,0-3.1,10.6,4.4,21.9c0,0-0.3,6.2,1,8.9
	c0,0,3.4,7.2,7.5,7.9c3.3,0.6,10.8,3.2,19.2,4.4c0,0,14.6,12,11.9,23c0,0-0.3,14-3.4,15.4c0,0,9.9-9.6,1.7,4.8l-3.8,16.1
	c0,0,21.9-18.5,8.5-2.7l-8.5,22.2c0,0,16.7-15.7,10.6-8.5l-2.7,7.5c0,0,36.9-23.2,10.6,2.1c0,0,6.8-3.1,10.6-0.7c0,0,5.8-1,5.1,0.3
	c0,0-17.8,8.9-20.8,24.6c0,0,7.2-8.5,4.4,0.7l0.3,9.9c0,0,3.4-18.5,3.1,13.7c0,0,16.4-15.4,6.5,2.4v14.4c0,0,13-14,7.5-3.1
	c0,0,8.5-7.5,5.1,5.5c0,0-0.7,8.9,3.1-0.7c0,0,13.7-26.1,8.5-3.8c0,0-0.7,16.4,3.4,3.8c0,0,0.3,8.9,8.2,15c0,0-1-43.4,9.9-12.6
	l3.4,14c0,0,2.4-7.9,2.1-12.3c0,0,12.6-14,6.8,6.8c0,0,13-19.5,10.3-8.2c0,0-6.5,13.7-5.1,17.8c0,0,14.4-29.7,15.4-31.1
	c0,0-1.7,36.2,7.5,5.5c0,0,4.8,10.3,2.4,14c0,0,6.8-6.8,6.2-9.6c0,0,3.9-7,6.3,4.6c0,0,1.5,8,2.9,5.3c0,0,3.4,20.5,4.4,1
	c0,0,1.4-11.6-4.8-21.5c0,0,0.7-2.7-1.7-6.2c0,0,11.6,18.5,5.5-6.2c0,0,9.6,6.8,10.6,6.8c0,0-11.6-19.8-4.1-15.7
	c0,0-4.4-8.9,10.9,1.4c0,0-13.7-13.7,1.4-5.5c0,0,6.8,5.5,0.3-3.1c0,0-12.3-13.7,6.5,1.7c0,0,9.9,14,10.6,16.4c0,0-8.5-25-12.3-27.3
	c0,0,7.2-31.1,42.4-17.8c0,0,5.8,14.7,9.6-1c0,0,10.9-5.5,20.5,18.1c0,0,3.4-11.6,2.7-14c0,0,5.8,1,5.1,0c0,0,11.3,3.8,12.3,3.1
	c0,0,5.8,5.8,6.2,2.7c0,0,7.9,2.4,6.2-0.7c0,0,7.5,13.3,7.9,16.4l2.1-12l1.7,2.4c0,0,1.4-6.5,0.7-7.5c-0.7-1,17.1,5.8,21.2,23.6
	l1.7,7.2c0,0,5.1-12.6,3.8-16.1c0,0,4.4,0.7,4.8,4.4c0,0,3.4-19.8-0.7-25c0,0,3.8-0.7,4.8,2.4v-6.2c0,0,6.1,0.7,6.1-1.4
	c0,0,3.8-3.4,5.5,0.7c0,0-10.6-30.1,5.1-13.7c0,0,6.1,9.2,3.1-6.8c-3.1-16.1-6.5-17.4-2.4-17.8c0,0,0.7-3.1-1-4.4c-1.7-1.4,1,0,1,0
	s4.1,3.4-0.3-15.4c0,0,5.5,1.4-4.8-23.6c0,0,2.4-2.1-1-9.2c0,0,6.8,3.8,9.2,2.4c0,0-0.3-1.4-3.1-4.8c0,0-18.5-46.8-1-28
	c0,0,10.1,11.6,4.7-7.9c0,0-7.8-20.5-7.1-24.2L52.2,240.1z"/>
<path id="path58" class="st2" d="M419.2,220.6c0.5,0.2,2.4,1.1,3.5,2.5c0,0,5.8,9.2,1.4-6.5c0,0-7.9-24.6-0.3-15
	c0,0,5.1,6.2,2.4-5.5c-3.3-14-5.5-19.5-5.5-19.5s9.9,4.1-13-29.7l7.5,3.1c0,0-16.7-33.8-35.2-38.3l-6.8-5.1c0,0,32.8-32.5,21.9-63.9
	c0,0-5.8-4.4-14,3.4c0,0-5.5,4.1-10.6,2.7c0,0-26.3,1-28,1c-1.7,0-31.4-31.8-87.5-16.7c0,0-4.4,1.7-8.2,0.7c0,0-15.7-13.7-57.4,5.8
	c0,0-8.5,1.7-9.9,1.7s-3.8,0-10.6,5.5c-6.8,5.5-7.2,6.2-8.9,7.5c0,0-14,9.6-18.1,10.3c0,0-9.9,5.5-13.7,14l-3.1,1
	c0,0-1.4,6.2-1.7,7.2c0,0-4.1,3.1-4.8,7.9c0,0-7.5,5.1-7.2,8.9c0,0-1.4,4.4-2.1,8.5c0,0-6.2,4.1-5.5,6.5c0,0-6.5,12-5.5,17.8
	c0,0-5.5-0.3-7.9,1.7c0,0-0.7,4.1-2.1,4.4c0,0-2.4,1-0.3,4.4c0,0-1.4,2.4-1.7,3.8c0,0,0.7,2.4-3.1,7.2c0,0-5.5,16.1-3.8,20.5
	c0,0,0.3,4.1-2.1,5.5c0,0-3.1-0.3,4.1,9.9c0,0,0.7,1-2.1,3.1c0,0-14.7,3.1-16.7,17.1c0,0-11.6,12.6-11.6,17.1c0,2,0.2,4.7,0.8,8.6
	c0,0-0.5,7.1,23.1,7.8S419.2,220.6,419.2,220.6z"/>
<path id="path62" class="st3" d="M64.3,239.7c-21.4-33.7-9.1,14.5-9.1,14.5c7.5,29.4,118.3-2.7,118.3-2.7s144.2-26,153.8-29.4
	c9.6-3.4,90.9,2.1,90.9,2.1l-4.8-14.4c-55.4-39.6-71.8-19.8-83.4-23.2c-11.6-3.4-9.6,4.8-12.3,5.5s-36.2-20.5-41.7-19.8
	c-5.5,0.7-27.1-19.6-14.4,7.5c13.7,29.1-49.9,33.5-64.3,23.9s6.2,15.7,6.2,15.7c15.7,17.1-13.7,2.7-13.7,2.7
	c-29.4-10.9-49.9,10.9-52.6,11.6c-2.7,0.7-6.8,3.4-7.5-2.1c-0.7-5.5-7.1-19.7-34.2,2.7c-17.1,14.2-28.9-4.6-28.9-4.6L64.3,239.7z"/>
<path id="path66" class="st4" d="M277.2,173.7c-5.5,0.7-27.1-19.6-14.4,7.5c14.2,30.1-49.9,33.5-64.3,23.9
	c-14.4-9.6,6.2,15.7,6.2,15.7c15.7,17.1-13.7,2.7-13.7,2.7c-29.4-10.9-49.9,10.9-52.6,11.6c-2.7,0.7-6.8,3.4-7.5-2.1
	c-0.7-5.5-7-19.6-34.2,2.7c-18.1,14.8-29.7-3.5-29.7-3.5l-2.7,8.6c-21.4-34-8.5,15.8-8.5,15.8c7.5,29.4,118.8-3.9,118.8-3.9
	s144.2-26,153.8-29.4c9.6-3.4,90.2,2,90.2,2l-4.7-14.8c-55.4-39.6-71.1-19.3-82.7-22.7c-11.6-3.4-9.6,4.8-12.3,5.5
	C316.2,194.2,282.7,173,277.2,173.7z"/>
<path id="path70" class="st5" d="M278.3,175.2c-5.5,0.7-26.6-19.8-14.4,7.5c13.8,30.9-49.9,33.5-64.3,23.9
	c-14.4-9.6,6.2,15.7,6.2,15.7c15.7,17.1-13.7,2.7-13.7,2.7c-29.4-10.9-49.9,10.9-52.6,11.6c-2.7,0.7-6.8,3.4-7.5-2.1
	c-0.7-5.5-6.9-19.5-34.2,2.7c-19.2,15.5-30.5-2.4-30.5-2.4l-3.1,7.4c-20.3-33.3-7.9,17.1-7.9,17.1c7.5,29.4,119.4-5,119.4-5
	s144.2-26,153.8-29.4c9.6-3.4,89.4,1.9,89.4,1.9l-4.7-15.2c-55.4-39.6-70.4-18.8-82-22.2c-11.6-3.4-9.6,4.8-12.3,5.5
	C317.3,195.7,283.8,174.5,278.3,175.2z"/>
<path id="path74" class="st6" d="M279.4,176.7c-5.5,0.7-26.6-19.9-14.4,7.5c14.4,32.1-50.4,33.2-64.3,23.9
	c-14.4-9.6,6.2,15.7,6.2,15.7c15.7,17.1-13.7,2.7-13.7,2.7c-29.4-10.9-49.9,10.9-52.6,11.6c-2.7,0.7-6.8,3.4-7.5-2.1
	c-0.7-5.5-6.8-19.3-34.2,2.7c-20.3,16.1-31.3-1.3-31.3-1.3l-3.4,6.1c-18.6-31.4-7.3,18.4-7.3,18.4c7.5,29.4,119.9-6.1,119.9-6.1
	s144.2-26,153.8-29.4c9.6-3.4,88.7,1.9,88.7,1.9l-4.6-15.7c-55.4-39.6-69.7-18.3-81.3-21.8c-11.6-3.4-9.6,4.8-12.3,5.5
	C318.4,197.2,284.9,176,279.4,176.7z"/>
<path id="path78" class="st7" d="M280.5,178.2c-5.5,0.7-26.2-20-14.4,7.5c14.4,33.5-49.9,33.5-64.3,23.9
	c-14.4-9.6,6.2,15.7,6.2,15.7c15.7,17.1-13.7,2.7-13.7,2.7c-29.4-10.9-49.9,10.9-52.6,11.6c-2.7,0.7-6.8,3.4-7.5-2.1
	s-6.7-19.2-34.2,2.7c-21.3,16.7-32.1-0.2-32.1-0.2l-3.8,4.8c-16.9-29.7-6.8,19.7-6.8,19.7c7.5,29.4,120.5-7.2,120.5-7.2
	s144.2-26,153.8-29.4c9.6-3.4,87.9,1.8,87.9,1.8l-4.5-16.1c-55.4-39.6-69-17.8-80.7-21.3c-11.6-3.4-9.6,4.8-12.3,5.5
	C319.5,198.7,286,177.5,280.5,178.2z"/>
<path id="path82" class="st8" d="M281.7,179.7c-5.5,0.7-27.7-19.4-14.4,7.5c16.4,33.2-49.9,33.5-64.3,23.9
	c-14.4-9.6,6.2,15.7,6.2,15.7c15.7,17.1-13.7,2.7-13.7,2.7c-29.4-10.9-49.9,10.9-52.6,11.6c-2.7,0.7-6.8,3.4-7.5-2.1
	c-0.7-5.5-6.5-19-34.2,2.7c-22.4,17.4-32.8,0.9-32.8,0.9l-4.1,3.5c-15.4-28.4-6.2,21-6.2,21c7.5,29.4,121.1-8.3,121.1-8.3
	s144.2-26,153.8-29.4c9.6-3.4,87.2,1.7,87.2,1.7l-4.5-16.5c-55.4-39.6-68.4-17.3-80-20.8c-11.6-3.4-9.6,4.8-12.3,5.5
	S287.1,179,281.7,179.7z"/>
<path id="path86" class="st9" d="M282.8,181.2c-5.5,0.7-28-19.2-14.4,7.5c17.4,34.2-49.9,33.5-64.3,23.9
	c-14.4-9.6,6.2,15.7,6.2,15.7c15.7,17.1-13.7,2.7-13.7,2.7c-29.4-10.9-49.9,10.9-52.6,11.6c-2.7,0.7-6.8,3.4-7.5-2.1
	c-0.7-5.5-6.4-18.9-34.2,2.7c-23.4,18-33.6,2-33.6,2l-4.4,2.3c-13.7-25.8-5.6,22.3-5.6,22.3c7.5,29.4,121.6-9.4,121.6-9.4
	s144.2-26,153.8-29.4c9.6-3.4,86.4,1.7,86.4,1.7l-4.4-17c-55.4-39.6-67.7-16.8-79.3-20.3c-11.6-3.4-9.6,4.8-12.3,5.5
	C321.7,201.7,288.2,180.5,282.8,181.2z"/>
<path id="path90" class="st10" d="M283.9,182.7c-5.5,0.7-28.9-18.7-14.4,7.5c18.8,33.8-49.9,33.5-64.3,23.9s6.2,15.7,6.2,15.7
	c15.7,17.1-13.7,2.7-13.7,2.7c-29.4-10.9-49.9,10.9-52.6,11.6c-2.7,0.7-6.8,3.4-7.5-2.1c-0.7-5.5-6.3-18.7-34.2,2.7
	C78.9,263.5,69,248,69,248l-4.8,1c-12.3-24.3-5,23.6-5,23.6c7.5,29.4,122.2-10.6,122.2-10.6s144.2-26,153.8-29.4
	c9.6-3.4,85.7,1.6,85.7,1.6l-4.4-17.4c-55.4-39.6-67-16.3-78.6-19.8c-11.6-3.4-9.6,4.8-12.3,5.5C322.9,203.2,289.4,182,283.9,182.7z
	"/>
<path id="path94" class="st11" d="M285,184.2c-5.5,0.7-28.9-18.7-14.4,7.5c18.8,33.8-49.9,33.5-64.3,23.9
	c-14.4-9.6,6.2,15.7,6.2,15.7c15.7,17.1-13.7,2.7-13.7,2.7c-29.4-10.9-49.9,10.9-52.6,11.6c-2.7,0.7-6.8,3.4-7.5-2.1
	c-0.7-5.5-6.2-18.6-34.2,2.7c-25.5,19.3-35.2,4.2-35.2,4.2l-5.1-0.3c-11.6-22.6-4.5,24.8-4.5,24.8c7.5,29.4,122.7-11.7,122.7-11.7
	s144.2-26,153.8-29.4s85,1.6,85,1.6l-4.3-17.8c-55.4-39.6-66.3-15.8-77.9-19.3c-11.6-3.4-9.6,4.8-12.3,5.5
	C324,204.7,290.5,183.5,285,184.2z"/>
<path id="path98" class="st12" d="M286.1,185.7c-5.5,0.7-28.6-18.9-14.4,7.5c18.8,34.9-49.9,33.5-64.3,23.9
	c-14.4-9.6,6.2,15.7,6.2,15.7c15.7,17.1-13.7,2.7-13.7,2.7c-29.4-10.9-49.9,10.9-52.6,11.6c-2.7,0.7-6.8,3.4-7.5-2.1
	c-0.7-5.5-6.1-18.4-34.2,2.7c-26.6,19.9-36,5.3-36,5.3l-5.5-1.6c-11.1-20.5-3.9,26.1-3.9,26.1c7.5,29.4,123.3-12.8,123.3-12.8
	s144.2-26,153.8-29.4s84.2,1.5,84.2,1.5l-4.2-18.3c-55.4-39.6-65.6-15.4-77.2-18.8s-9.6,4.8-12.3,5.5
	C325.1,206.2,291.6,185,286.1,185.7z"/>
<path id="path102" class="st13" d="M287.3,187.2c-5.5,0.7-27.7-19.3-14.4,7.5c18.1,36.6-49.9,33.5-64.3,23.9
	c-14.4-9.6,6.2,15.7,6.2,15.7c15.7,17.1-13.7,2.7-13.7,2.7c-29.4-10.9-49.9,10.9-52.6,11.6c-2.7,0.7-6.8,3.4-7.5-2.1
	c-0.7-5.5-6-18.3-34.2,2.7c-27.7,20.6-36.8,6.4-36.8,6.4l-5.8-2.8c-10.9-19.8-3.3,27.4-3.3,27.4c7.5,29.4,123.9-13.9,123.9-13.9
	s144.2-26,153.8-29.4c9.6-3.4,83.5,1.4,83.5,1.4l-4.2-18.7c-55.4-39.6-64.9-14.9-76.6-18.3c-11.6-3.4-9.6,4.8-12.3,5.5
	C326.2,207.7,292.7,186.5,287.3,187.2z"/>
<path id="path106" class="st14" d="M64.2,254.3c-10.9-18.8-2.7,28.7-2.7,28.7c7.5,29.4,124.4-15,124.4-15s144.2-26,153.8-29.4
	c9.6-3.4,82.7,1.4,82.7,1.4l-4.1-19.1c-55.4-39.6-64.3-14.4-75.9-17.8s-9.6,4.8-12.3,5.5c-2.7,0.7-36.2-20.5-41.7-19.8
	c-5.5,0.7-27-19.7-14.4,7.5c19,40.8-51.9,32.2-64.3,23.9c-14.4-9.6,6.2,15.7,6.2,15.7c15.7,17.1-13.7,2.7-13.7,2.7
	c-29.4-10.9-49.9,10.9-52.6,11.6c-2.7,0.7-6.8,3.4-7.5-2.1s-5.9-18.2-34.2,2.7c-28.7,21.2-37.6,7.5-37.6,7.5L64.2,254.3z"/>
<path id="path110" d="M99.7,279.9c0,0-6.2,9.9,11.6,21.2c0,0,1.2,1.2-14.2-2.4c0,0-5.3-1.7-6.7-10.6c0,0-4.1-3.8-8.2-8.5
	C78.2,274.8,99.7,279.9,99.7,279.9z"/>
<path id="path114" class="st15" d="M219.3,239.2c0,0,15.1,22.9,14.6,27c-1.1,8.9-1.3,17.1,1.5,20.5c2.7,3.4,10.3,31.8,10.3,31.8
	s-0.3,1,10.3-31.4c0,0,9.9-13.7-7.2-29.4C248.7,257.7,218.6,233.1,219.3,239.2z"/>
<path id="path118" d="M116.8,302.8c0,0,9.6,6.2-2.7,32.8l5.5-2.1c0,0-0.7,9.6-3.4,11.6l6.2-2.7c0,0,4.1,6.8,0.7,10.9
	c0,0,14.4,6.8,13.7,12.3c0,0,5.5-6.8,2.1-12.3c-3.4-5.5-9.6-2-8.9-17.8l-7.5,2.7c0,0,4.8-7.5,4.8-13l-6.8,2.1
	c0,0,13.2-22.7,4.1-23.9C119.2,302.8,116.8,302.8,116.8,302.8z"/>
<path id="path122" class="st15" d="M144.5,317.2c0,0,2.4-3.8,0-3.1c-2.4,0.7-29.1,13.3-34.2,21.5
	C110.3,335.6,139.7,314.8,144.5,317.2z"/>
<path id="path126" class="st15" d="M153.4,324c0,0,2.4-3.8,0-3.1c-2.4,0.7-29.1,13.3-34.2,21.5C119.2,342.5,148.6,321.6,153.4,324z"
	/>
<path id="path130" class="st15" d="M164.6,311c0,0,2.4-3.8,0-3.1c-2.4,0.7-29.1,13.3-34.2,21.5C130.5,329.5,159.9,308.6,164.6,311z"
	/>
<path id="path134" class="st15" d="M144.8,348.3c0,0,0-5.1-2.4-4.4c-2.4,0.7-33.2,15.7-38.3,23.9C104.1,367.7,140,345.9,144.8,348.3
	z"/>
<path id="path138" class="st15" d="M145.8,339c0,0,1-4.1-1.4-3.4c-1.7,0-24.3,9.9-29.4,18.1C115.1,353.7,140.4,335.3,145.8,339z"/>
<path id="path142" class="st15" d="M133.5,379.7l-8.5,6.5c0,0,8.9-6.5,12-5.5c0,0-5.8,9.6-6.5,14c0,0,8.9-10.9,13.7-10.6
	c0,0,6.5,0.3,6.5,9.6c0,0,4.8-8.9,7.5-8.5c0,0,1,5.5,0,11.3c0,0,3.4-6.5,6.8-5.1c0,0,5.5-1.7,4.8,8.2c0,0,0,8.9-0.7,11.3
	c0,0,4.8-22.6,6.8-22.9c0,0,6.8-1,10.9,6.5c0,0-3.4-6.5,0.7-4.8c0,0,9.2,1.4,12,7.2c0,0-5.8-10.3-1-7.5c0,0,5.8,0,6.8,5.5
	c0,0,7.2,18.1,8.9,19.5c0,0-6.5-18.5-5.1-18.5c0,0-1.7-10.3,2.7,2.4c0,0-2.7-12,2.1-11.3c4.8,0.7,8.5,9.2,15.7,7.2
	c0,0,8.2,4.8,9.9-54.3L133.5,379.7z"/>
<path id="path146" d="M137.6,300.4c0,0,12.6-5.1,46.8,0c0,0,6.2,0.3,12-7.2c5.8-7.5,28.7-13.7,34.2-12l8.2,5.5l0.7,1
	c0,0,10.6,8.9,10.9,15.4c0.3,6.5-12.3,47.5-20.5,61.2c-8.2,13.7-16.4,24.3-32.8,22.2c0,0-17.8-3.4-39.6,0c0,0-24.9-1.4-27.3-8.2
	s9.6-19.8,9.6-19.8s3.8-7.2,2.7-19.5C141.4,326.7,141.7,302.8,137.6,300.4z"/>
<path id="path150" class="st16" d="M156.4,302.1c7.2,15.7-18.1,71.4-18.1,71.4c-1.7,1.4,10.8,6.5,19.5,4.4
	c9.4-2.3,43.8,1.4,43.8,1.4c20.2-13.3,31.1-51.3,31.1-51.3s8.9-20.5-6.2-23.2C211.5,302.1,156.4,302.1,156.4,302.1z"/>
<path id="path154" class="st17" d="M154.7,328.5c2.8-10.9,4.2-21,1.7-26.4c0,0,53.3,5.5,62.9-12.3c3.6-6.7,16.2,19.5,15.9,27.7
	c0,0-53.8,12.3-66.5,2.7L154.7,328.5z"/>
<path id="path158" class="st18" d="M158.5,342.5c0,0,1.7,6.2-0.3,9.6c0,0-1.4,0.7-2.4,1c0,0,1,3.1,6.2,4.4c0,0,1.7,3.8,3.8,4.1
	c2.1,0.3,6.2,5.1,9.6,4.1s13-4.4,13-4.4s4.8-2.7,12.3,0.3c0,0,2-0.7,2.4-4.1c0.4-4,3.1-7.2,4.8-8.9s9.9-12.6,8.9-13
	C215.6,335.3,158.5,342.5,158.5,342.5z"/>
<path id="path162" class="st19" d="M154.7,301.1c0,0-2.4,19.1,0.3,26.3c2.7,7.2,2.1,8.9,1.4,12.3c-0.7,3.4,3.1,12,7.9,17.1l10.3,1.4
	c0,0,13-3.1,20.8-0.7c0,0,7.7,1.1,10.6-11.6c0,0,4.1-5.5,10.3-7.9c6.2-2.4,12.3-37.9,8.9-44.8c-3.4-6.8-15.7-10.6-29.4,2.7
	C182.1,309.3,180.4,294.9,154.7,301.1z"/>
<path id="path166" class="st20" d="M156.1,365c0,0-0.7-1.7-4.4-2.1c0,0-19.1-3.1-26.3-13.7c0,0-5.8-4.8-2.1,5.1
	c0,0,8.9,17.4,14.7,19.8C138,374.2,152,377.7,156.1,365z"/>
<path id="path170" class="st21" d="M224.4,310.3c0.6-6.8,2.2-14.1,0.7-17.1c-5.5-11-20-6.4-29.4,2.7c-13.7,13.3-15.4-1-41,5.1
	c0,0-1.5,11.9-0.8,20.5c0,0,31.9-9.9,32.6-5.1c0,0,1.4-2.7,9.2-2.7C203.6,313.7,223,312.7,224.4,310.3z"/>
<path id="path174" class="st22" d="M187.5,301.8c0,0,4.1,4.1,1,12.3c0,0-12.3,13.7-10.6,25.6"/>
<path id="path178" class="st20" d="M146.5,374.2c0,0-3.8-10.9,3.8-5.1c0,0,4.1,1.7,3.1,3.1C152.3,373.6,147.6,377,146.5,374.2z"/>
<path id="path182" class="st20" d="M150.8,375.3c0,0-3-8.8,3-4.1c0,0,3.8,2.1,2.5,2.5C152.4,374.7,156.3,376.9,150.8,375.3z"/>
<path id="path186" class="st20" d="M154.9,375.3c0,0-3-8.8,3-4.1c0,0,3.7,2,2.5,2.5C157.5,374.7,160.4,376.9,154.9,375.3z"/>
<path id="path190" class="st20" d="M160.6,375.4c0,0-3-8.7,3-4.1c0,0,3.7,2,2.5,2.5C163.5,374.7,166,377.1,160.6,375.4z"/>
<path id="path194" class="st20" d="M166.1,375.4c0,0-3-8.8,3-4.1c0,0,3.3,1.4,2.5,2.5C170.8,374.8,171.6,377,166.1,375.4z"/>
<path id="path198" class="st20" d="M171.8,375.9c0,0-4.1-10.6,3.8-5.1c0,0,4.1,1.7,3.1,3.1C177.6,375.3,178.7,378,171.8,375.9z"/>
<path id="path202" class="st23" d="M147.6,361.2c0,0,11.3-2.4,16.4,0.3c0,0,5.1,1,6.2,0.7c1-0.3,3.8-0.7,3.8-0.7"/>
<path id="path206" class="st23" d="M176.6,368.8c0,0,10.3-11.6,20.5-7.9c6,2.2,5.1-0.7,5.8-3.1s0.9-6,5.1-8.5"/>
<path id="path210" class="st20" d="M191.3,355.1c0,0-3.4-9.2-5.8,1.7s-5.1,14-6.5,16.4c0,0,0,4.4,7.2,4.1c0,0,9.2-0.3,9.6-2.7
	C196.1,372.2,194.7,362.3,191.3,355.1z"/>
<path id="path214" class="st23" d="M203.3,361.2c0,0,3.1-2,5.1-1"/>
<path id="path218" class="st23" d="M208.8,347.2c0,0,2.5-4.2,6.6-4.9"/>
<path id="path222" class="st24" d="M141.1,378.7c0,0,15.4,2.7,19.1,1.4c0,0,7.5,0,0.3,1.7c0,0-10.9,0-17.8-1
	C142.8,380.7,132.9,375.9,141.1,378.7z"/>
<path id="path226" class="st20" d="M153,299c0,0,15,0,16.7,0.7c0,0,6.2,26.3,3.1,32.8c0,0-1,2.4-3.4-2.4c0,0-15.7-28-18.5-29.7
	C148.2,298.7,152,299,153,299z"/>
<path id="path230" class="st20" d="M87.1,296.7c0,0,7.6,1.5,18.4,3.7c0,0,4.1,19.1,6.8,23.2c2.7,4.1-0.3,4.1-3.4,1.7
	c-3.1-2.4-15.7-14.4-17.4-18.1C89.8,303.5,87.1,296.7,87.1,296.7z"/>
<path id="path234" class="st20" d="M105.8,300.6c0,0,5,1.3,5.8,3.2c0.9,1.9-1,4.7-1,4.7s-0.9,2.8-1.9,1
	C107.7,307.6,105.3,301.1,105.8,300.6z"/>
<path id="path238" d="M105.9,300.4c0,0,3.1,4.4,6.2,4.4s3.4-0.4,5.8,0.2c3.9,0.9,3.6-0.9,9.2,0.2c2.3,0.4,4.4-0.3,6.8,0.7
	c2.4,1,5.1,0.3,6.2-1.4c1-1.7,5.1-5.3,5.1-5.3s-10.9,1.5-13.3,2.2C131.8,301.4,112.7,302.5,105.9,300.4z"/>
<path id="path242" class="st20" d="M144,300.6c0,0-5.5,3-5.9,5c-0.3,2,4.5,5.2,4.5,5.2s2.3,3.9,2.9,1.9
	C146,310.7,144.6,300.9,144,300.6z"/>
<path id="path246" class="st20" d="M111.9,305.2c0,0,6,9.6,6.2,0c0,0,0.5-1.1-1-1.1C111.9,304.1,113.2,300.6,111.9,305.2z"/>
<path id="path250" class="st20" d="M118.1,305.5c0,0,6.8,9.6,6.2-0.1c0,0,0-0.3-1.5-0.4C118.7,304.6,119,300.8,118.1,305.5z"/>
<path id="path254" class="st20" d="M124.2,305.5c0,0,6.8,9.1,6.2,0.8c0,0,0.1-1.1-1.3-1.3C125.8,304.4,125.6,301.6,124.2,305.5z"/>
<path id="path258" class="st20" d="M130.1,305.5c0,0,6.8,9.9,7,1.5c0,0,1.4-1.2-0.1-1.4C132.1,305.1,132.8,301.3,130.1,305.5z"/>
<path id="path262" class="st25" d="M99.2,308.6l-6.5-1.3c-2.2-4.3-4-9.5-4-9.5s5.4,0.9,16.1,3.2c0,0,0.7,2.8,2,7.8L99.2,308.6z"/>
<path id="path266" class="st25" d="M154.8,304.6c-1.4-2.1-2.5-3.6-3.1-4c-2.6-1.6,1-1.3,1.9-1.3c0,0,14.2,0,15.8,0.6
	c0,0,0.4,1.9,1,4.8C170.4,304.7,161.8,303,154.8,304.6z"/>
<path id="path270" class="st3" d="M200.6,186.5c23.7,3.4,45.5-27.1,47-35.3c1.5-8.3-7.1-18.4-7.1-18.4c1.1-2.6-3-14.7-7.5-22.6
	c-4.5-7.9-18.1-7.1-33.1-7.9c-13.5-0.8-29.3,19.2-30.5,20.7c-1.1,1.5,4.1,34.2,5.3,39.1c1.1,4.9-1.1,27.4-1.1,27.4
	C202.8,181.8,176.9,183.1,200.6,186.5z"/>
<path id="path274" class="st26" d="M170,123.5c-1.1,1.5,4.1,33.6,5.2,38.4c1.1,4.8-1.1,26.9-1.1,26.9c27.9-7.6,3.3-6.3,26.6-3
	c23.3,3.3,44.7-26.6,46.1-34.7c1.5-8.1-7-18.1-7-18.1c1.1-2.6-3-14.4-7.4-22.1c-4.4-7.8-17.8-6.9-32.5-7.8
	C186.6,102.5,171.1,122.1,170,123.5z"/>
<path id="path278" class="st27" d="M170.6,124.1c-1.1,1.4,4,33,5.1,37.7c1.1,4.7-1.1,26.4-1.1,26.4c26.8-7.8,3.3-6.2,26.1-2.9
	c22.8,3.3,43.8-26.1,45.3-34.1c1.4-8-6.9-17.8-6.9-17.8c1.1-2.5-2.9-14.1-7.2-21.7c-4.3-7.6-17.4-6.8-31.9-7.6
	C186.9,103.4,171.7,122.6,170.6,124.1z"/>
<path id="path282" class="st28" d="M171.3,124.6c-1.1,1.4,3.9,32.3,5,37c1.1,4.6-1.1,25.9-1.1,25.9c25.2-7.7,3.2-6,25.6-2.8
	c22.4,3.2,43-25.6,44.4-33.4c1.4-7.8-6.8-17.4-6.8-17.4c1.1-2.5-2.8-13.9-7.1-21.3c-4.3-7.5-17.1-6.7-31.3-7.5
	C187.3,104.4,172.3,123.2,171.3,124.6z"/>
<path id="path286" class="st29" d="M171.9,125.2c-1,1.4,3.8,31.7,4.9,36.3c1,4.5-1,25.4-1,25.4c23.8-7.6,3.1-5.9,25.1-2.8
	c22,3.1,42.2-25.1,43.6-32.8c1.4-7.7-6.6-17.1-6.6-17.1c1-2.4-2.8-13.6-7-20.9s-16.8-6.5-30.7-7.3
	C187.6,105.3,172.9,123.8,171.9,125.2z"/>
<path id="path290" class="st14" d="M200.9,183.5c21.5,3.1,41.4-24.6,42.7-32.1s-6.5-16.7-6.5-16.7c1-2.4-2.7-13.3-6.8-20.5
	c-4.1-7.2-16.5-6.4-30.1-7.2c-12.3-0.7-26.7,17.4-27.7,18.8c-1,1.4,3.8,31.1,4.8,35.5c1,4.4-1,25-1,25
	C198.1,178.9,179.3,180.4,200.9,183.5z"/>
<path id="path294" class="st15" d="M240.5,154.5c0,0-23.8,6.5-33.7,5.1c0,0-13.5-5.6-21,13c0,0-3.1,6.2-4.8,7.9
	C179.3,182.1,240.5,154.5,240.5,154.5z"/>
<path id="path298" d="M243.8,152.6c0,0-24.8,10.4-33.3,10.1c0,0-14-3.9-21.2,8.5c0,0-7.2,7.9-9.9,9.2c0,0-0.3,1.4,5.1-2.1l8.9,4.4
	c0,0,12.6,8.2,20.9-5.5c0,0,3.4-9.6,3.4-11.3s18.1-6.5,19.5-6.8C238.5,158.9,244.1,155.3,243.8,152.6z"/>
<path id="path302" class="st30" d="M203.3,183.3c-5.9,0-13-3.3-13-8.6s7.2-10.7,13-10.7c5.9,0,10.6,4.3,10.6,9.7
	S209.1,183.3,203.3,183.3z"/>
<path id="path306" class="st31" d="M200.2,169c-4.1,0.6-8.5,1.9-8.4,1.7c1.3-3.9,6.8-6.8,11.5-6.8c3.7,0,6.9,1.7,8.8,4.3
	C212.1,168.2,207.5,167.9,200.2,169z"/>
<path id="path310" class="st14" d="M210.4,168.8c0,0-3.8-2.7-3.8-0.9C206.7,168,209.8,171.7,210.4,168.8z"/>
<path id="path314" d="M201.9,175.8c-2.1,0-3.9-1.7-3.9-3.9c0-2.1,1.7-3.9,3.9-3.9c2.1,0,3.9,1.7,3.9,3.9
	C205.8,174,204,175.8,201.9,175.8z"/>
<path id="path318" class="st3" d="M113,164.4c0,0-2.7-18.1-0.7-21.9c0,0,9.2-8.5,8.9-11.6c0,0-0.3-15.4-1.4-16.1
	c-1-0.7-7.5-5.8-12.6-0.3c0,0-8.9,15.4-8.2,20.8v1.7c0,0-6.5-0.3-7.9,1.4c0,0-1,4.4-2.1,4.8c0,0-2.4,2.1-0.7,4.4
	c0,0-1.7,2.1-1.4,5.5l6.5,3.4c0,0,1.7,12.3,10.9,16.7C108.6,175.3,111.3,169.5,113,164.4z"/>
<path id="path322" class="st14" d="M112.2,162.8c0,0-2.5-16.3-0.6-19.7c0,0,8.3-7.7,8-10.5c0,0-0.3-13.8-1.2-14.5
	c-0.9-0.6-6.8-5.2-11.4-0.3c0,0-8,13.8-7.4,18.8v1.5c0,0-5.8-0.3-7.1,1.2c0,0-0.9,4-1.8,4.3c0,0-2.2,1.8-0.6,4c0,0-1.5,1.8-1.2,4.9
	l5.8,3.1c0,0,1.5,11.1,9.8,15.1C108.2,172.6,110.6,167.4,112.2,162.8z"/>
<path id="path326" class="st32" d="M119.5,115.7c-0.9-0.7-7.3-5.7-12.3-0.3c0,0-8.7,15-8,20.3v1.7c0,0-6.3-0.3-7.7,1.3
	c0,0-1,4.3-2,4.7c0,0-2.3,2-0.7,4.3c0,0-1.7,2-1.3,5.3l6.3,3.3c0,0,1.7,12,10.7,16.3c4,1.9,6.7-3.7,8.3-8.7c0,0-2.7-17.7-0.7-21.3
	c0,0,9-8.3,8.7-11.3C120.8,131.3,120.5,116.3,119.5,115.7z"/>
<path id="path330" class="st33" d="M119.1,116.5c-0.8-0.8-7.1-5.5-12-0.3c0,0-8.4,14.6-7.8,19.8v1.6c0,0-6.2-0.3-7.5,1.3
	c0,0-1,4.2-1.9,4.5c0,0-2.3,1.9-0.6,4.2c0,0-1.6,1.9-1.3,5.2l6.2,3.2c0,0,1.6,11.7,10.4,15.9c3.9,1.9,6.5-3.6,8.1-8.4
	c0,0-2.6-17.2-0.6-20.8c0,0,8.8-8.1,8.4-11C120.4,131.8,120.1,117.2,119.1,116.5z"/>
<path id="path334" class="st34" d="M118.7,117.4c-0.7-0.8-7-5.4-11.7-0.3c0,0-8.2,14.2-7.6,19.3v1.6c0,0-6-0.3-7.3,1.3
	c0,0-0.9,4.1-1.9,4.4c0,0-2.2,1.9-0.6,4.1c0,0-1.6,1.9-1.3,5.1l6,3.2c0,0,1.6,11.4,10.1,15.5c3.8,1.8,6.3-3.5,7.9-8.2
	c0,0-2.5-16.8-0.6-20.2c0,0,8.5-7.9,8.2-10.7C120,132.2,119.7,118,118.7,117.4z"/>
<path id="path338" class="st14" d="M112.2,162.7c0,0-2.5-16.2-0.6-19.6c0,0,8.3-7.7,8-10.5c0,0-0.3-13.8-1.2-14.5
	c-0.6-0.9-6.8-5.2-11.4-0.3c0,0-8,13.8-7.4,18.8v1.5c0,0-5.8-0.3-7.1,1.2c0,0-0.9,4-1.8,4.3c0,0-2.2,1.8-0.6,4c0,0-1.5,1.8-1.2,4.9
	l5.8,3.1c0,0,1.5,11.1,9.8,15.1C108.2,172.6,110.6,167.3,112.2,162.7z"/>
<path id="path342" class="st15" d="M109.5,157.4c0,0-18.5-8.7-19.2-9.4c0,0,7.8,7,8.5,7C99.4,155,109.5,157.4,109.5,157.4z"/>
<path id="path346" d="M94.9,152.1c0,0,15.7,3.1,15.7,6.8c0,2.5-0.2,14-4.8,12.6C98.7,169.5,101.8,157.2,94.9,152.1z"/>
<path id="path350" class="st30" d="M102.1,155.3c0,0,7.7,1.3,8.5,3.6c0.5,1.4,1.1,8.5-3.6,9.4C103.2,169.1,101.3,160.4,102.1,155.3z
	"/>
<path id="path354" d="M175.6,191.7c-0.4-1.5,0.7-1.4,2.2-1.8c1.7-0.5,12.1-3.8,12.8-6c0.7-2.2,12,1.5,12,1.5
	c1.5,0.7,5.3,2.9,5.3,2.9c4.1,1,9.7,1.4,9.7,1.4c2.1,0.9,5,3.2,5,3.2c12.5,8.7,23.1,2.6,23.1,2.6c17.1-5.6,12-20.3,12-20.3
	c-2.6-7.7,0.2-10.6,0.2-10.6c0.2-3.2,6.3,2.2,6.3,2.2c2.2,3.6,2.9,7.9,2.9,7.9c6.8,9.6,3.9-5.6,3.9-5.6c0.2-0.9-2.2-3.9-2.2-5
	s-1.5-3.9-1.5-3.9c-2.6-2.9-0.5-8.9-0.5-8.9c1.5-11.8-0.3-10.3-0.3-10.3c-1-1.5-8.9,7-8.9,7c-1.9,2.9-7,4.3-7,4.3
	c-2.4,1.5-5.3,0.3-5.3,0.3c-2.2-0.3-7,5.6-7,5.6c2.4-0.2,4.4,3.6,6.5,3.8c2.1,0.2,3.6-2.1,5-2.6c1.4-0.5,3.8,4.4,3.8,4.4
	c0.3,2.2-4.4,6.3-4.4,6.3c-0.3,3.9-1.7,2.6-1.7,2.6c-2.6-0.5-3.6,2.7-4.4,6.7c-0.9,3.9-4.4,4.3-4.4,4.3c-1.4,6.3-2.4,3.8-2.4,3.8
	c-0.2-4.8-5.3,0.2-5.3,0.2c-1,1.7-5-0.2-5-0.2c-5.8-1.7-3.8-3.4-3.8-3.4c1.5-1.9,11.1,0,11.1,0c1.9-1.4-5-4.8-5-4.8
	c-0.5-1.5,0.3-5.3,0.3-5.3c1-2.7,6.8-7.5,6.8-7.5c8-1,5.6-2.4,5.6-2.4c-5.3-4.4-10.3,2.1-10.3,2.1c-1.9,5.3-16.7,18.1-16.7,18.1
	c-4.1,2.9-1.9-2.9-5.3,0c-3.4,2.9-21-4.8-21-4.8c-9.9-1-12.2,12.4-15.2,9.8C172.3,189.2,176.9,196.5,175.6,191.7z"/>
<path id="path358" d="M342,49.5c0,0-21.9,6.8-24.3,22.9c0,0-2.1,19.5,15.4,34.5c0,0,0.3,5.5,2.1,8.2c0,0-1.4,4.1,14.7-2.4l23.2-7.2
	c0,0,5.5-2.1,9.9-9.6c4.4-7.5,17.4-23.6,14.4-45.1c0,0,1-9.6-4.1-9.9c0,0-7.2-1.4-13.3,5.1c0,0-5.8,2.7-7.9,2.4L342,49.5z"/>
<path id="path362" d="M388.7,48.7c0,0,1.8-7.6-2.3-3.5c0,0-6,4.9-12.4,4.9c0,0-12.4,1.9-16.2,13.2c0,0-3.4,22.9,3.4,27.8
	c0,0,4.1,6.4,10.1,0.8C377.3,86.2,390.6,60.3,388.7,48.7z"/>
<path id="path366" class="st35" d="M388.4,49c0,0,1.8-7.5-2.3-3.4c0,0-5.9,4.8-12.2,4.8c0,0-12.2,1.8-15.9,12.9
	c0,0-3.3,22.5,3.3,27.3c0,0,4.1,6.3,10,0.7C377.3,85.8,390.2,60.4,388.4,49z"/>
<path id="path370" class="st36" d="M388.1,49.3c0,0,1.8-7.3-2.2-3.3c0,0-5.8,4.7-12,4.7c0,0-12,1.8-15.6,12.7c0,0-3.3,22.1,3.3,26.8
	c0,0,4,6.2,9.8,0.7C377.2,85.5,389.9,60.5,388.1,49.3z"/>
<path id="path374" class="st37" d="M387.7,49.6c0,0,1.8-7.2-2.1-3.2c0,0-5.7,4.6-11.7,4.6c0,0-11.7,1.8-15.3,12.4
	c0,0-3.2,21.7,3.2,26.3c0,0,3.9,6,9.6,0.7S389.5,60.6,387.7,49.6z"/>
<path id="path378" class="st15" d="M387.4,49.9c0,0,1.8-7-2.1-3.2c0,0-5.6,4.5-11.5,4.5c0,0-11.5,1.7-15,12.2c0,0-3.1,21.3,3.1,25.8
	c0,0,3.8,5.9,9.4,0.7C377,84.8,389.2,60.7,387.4,49.9z"/>
<path id="path382" class="st14" d="M387.1,50.2c0,0,1.8-6.8-2-3.1c0,0-5.5,4.4-11.3,4.4c0,0-11.3,1.7-14.7,12c0,0-3.1,20.8,3.1,25.3
	c0,0,3.8,5.8,9.2,0.7C376.9,84.4,388.8,60.8,387.1,50.2z"/>
<path id="path386" class="st38" d="M206.3,223.8c0,0-17.4-16.4-24.3-17.1c0,0-29.4-3.4-42,12c0,0,15-17.4,38.6-12.6
	c0,0-18.5-3.8-29.1-1c0,0-14.4,0-22.6,12l-2.4,4.1c0,0,3.4-12.6,19.1-17.8c0,0,19.5-4.1,28.7,0c0,0-18.5-5.8-27-4.1
	c0,0-26-2.1-36.9,20.5c0,0,3.4-12.3,16.1-18.5c0,0,11.6-7.5,29.1-5.1c0,0,12.3,2.7,16.7,4.8c4.4,2.1,3.4-0.3-3.8-4.4
	c0,0-4.8-8.5-16.7-8.2c0,0-36.6,3.1-45.5,13.3c0,0,11.6-9.6,20.5-12c0,0,19.1-6.8,26.3-6.2c0,0,21.2,0.9,27.7-2.6c0,0-9.6,4.3-6.8,7
	c2.7,2.7,8.5,9.2,8.5,10.3s20.7,19.9,23.8,23.7L206.3,223.8z"/>
<path id="path390" class="st15" d="M324.6,389.6c0,0-13.2-31.2-23.9-39.3c0,0,22.2,13.7,25.2,29.1
	C325.9,379.4,325.9,387.9,324.6,389.6z"/>
<path id="path394" class="st15" d="M364.8,396c0,0-22.6-47-38.5-67.5c0,0,37.2,32,41.4,54.7l0.4,4.7l-2.6-2.1
	C365.6,385.8,365.2,393.5,364.8,396z"/>
<path id="path398" class="st15" d="M413,354.6c0,0-53.4-50.8-54.7-53c0,0,51.7,56.4,54.3,62.8C412.6,364.4,410.9,356.7,413,354.6z"
	/>
<path id="path402" class="st15" d="M252,391.8c0,0,16.7-44.4,32.9-25.2c0,0,12.8,8.5,12.4,11.1c0,0-3.4-5.6-18.8-5.1
	C278.5,372.5,262.2,370,252,391.8z"/>
<path id="path406" class="st15" d="M414.8,282.8c0,0-38.5-24.4-44.9-25.6c-10.1-2,42.3,24.8,46.6,33.8
	C416.5,290.9,418.2,288.8,414.8,282.8z"/>
<path id="path410" d="M286,373.9c0,0,17.4-1.7,23.2-7.5l3.8,3.1l15-32.8l3.1,4.4c0,0,12.3-12.6,11.6-19.5
	c-0.7-6.8,10.9,5.1,10.9,5.1s-0.7-9.9,5.5-4.1c0,0-2-13.3,5.1-6.5c0,0-9-25.8,10.3-3.8c4.8,5.5,1-0.3,1-0.3s-22.2-41-3.8-28.7
	c0,0,1.7-19.5,0.7-23.2c-1-3.8-2.7-22.9-6.8-27.3c-4.1-4.4,0.3-5.8,5.1-1.4c0,0-9.6-20.5,1.7-10.3c0,0-3.1-13-6.8-15.4
	c0,0-4.8-14.7,8.2-5.5c0,0-3.8-10.6-6.5-13.3c0,0-9.9-23.6-3.8-19.5l3.8,3.1c0,0-5.8-12-0.3-8.2c5.5,3.8,5.5,3.4,5.5,3.4
	s-18.1-28.4-0.7-13.3c0,0-7-11.9-9.9-17.8c0,0-16.1-17.4-3.8-12l4.1,1.4c0,0-7.5-8.5-14.4-9.9c-6.8-1.4,2.1-6.8,7.5-5.1
	c5.5,1.7,18.8,8.2,18.8,8.2s10.9,16.1,14.4,16.4c0,0-17.1-6.5-12,0.3c0,0,12.3,12,6.2,11.6c0,0-5.1,6.2-1,13.7
	c0,0-15.8-15.7-3.1,6.2l5.8,14c0,0-20.9-21.2-11.3-2.4c0,0,14.7,20.2,16.4,20.5c1.7,0.3,5.5,7.9,5.5,7.9l-3.8-1.7l4.4,7.5
	c0,0-9.6-10.3-4.4,1l4.8,12.3c0,0-17.4-18.8-5.8,6.5c0,0-14-4.4-6.5,10.3c0,0-1.4,13.7-1,18.1c0.3,4.4,1.4,28.7-2.4,35.5
	c-3.8,6.8,5.1,23.2,6.8,26.7s4.8,12.6-2.7,4.8c-7.5-7.9-3.8-3.1-2.1,4.4s6.8,20.8,6.2,25.6c0,0-1,1-3.8-2.1c0,0-12.6-19.5-11.3-7.2
	c0,0-1,6.8-3.8,14.4c0,0-2.7,9.2-2.7,1.7c0,0-2.7-14.4-5.1-7.9c-2.4,6.5-5.5,11.6-7.9,13.7c-2.4,2.1-6.8-17.4-7.9-8.5
	c0,0-10.3-10.6-14.4,3.4l-9.9,14c0,0-0.3-10.6-1.4-5.5C320.5,372.5,294.9,377.7,286,373.9z"/>
<path id="path414" d="M256.6,69c0,0-9.9-6.8-13.3-6.5S266.8,55,302,78.6c0,0,4.1,2.4,7.2,2.1c0,0,2.7,2.1,0.3,5.1
	c0,0-7.5,8.2,2,17.8c0,0,15.7,5.8,10.9-1.7c0,0,9.2,3.4,11.3,6.8c2.1,3.4,1,0,1,0s-5.5-6.2-10.6-10.6c0,0-4.4-1.7-6.8-8.9
	c-2.4-7.2-4.4-15.7-0.7-18.5c0,0-3.4,3.8-2.7,0.3s3.8-6.5,5.1-6.8c1.4-0.3,15.4-13.8,21.2-14.2c0,0-7.9,1.2-10.4,0.3
	c-2.6-0.9-25.3-10.6-30.4-11.6c0,0-14.4-5.6-4.1-3.9c0,0,30.6,3.2,46.1,14.5c0,0-6.2-7.2-21.9-13.2c0,0-19-10.8-49-6.5
	c0,0-15.2,2.7-21.9,4.3c0,0-2.2-0.5-2.7-0.9c-0.5-0.3-10.6-8-34.2-2.1c0,0-14.5,3.9-21.9,8c0,0-13,1-16.1,3.8
	c0,0-15.9,12.5-17.6,13.2s-11.4,7.2-12.1,7.5c0,0,21-5.6,23.1-7.7c2.1-2,16.9-4.3,19-3.1c2.1,1.2,9.2,0.7,1,1.2
	c0,0,64.6,12.6,65.3,14.4C253.2,70,256.6,69,256.6,69z"/>
<path id="path418" class="st3" d="M317.6,61.2c0,0-8.7-6.3-10.4-6.3s-12.3-8.7-15.9-8.4c-3.6,0.3-14-8.2-37.4-1.2
	c0,0-0.5-1.7,2.6-2.4c0,0,5.5-1.9,5.8-2.4c0,0,17.3-3.6,23.4-0.5c0,0,7.9,2.2,13.2,7.5c0,0,9.6,2.7,12.3,1.9c0,0,7.5,1.9,7.9,3.4
	c0,0,5,2.6,3.4,4.8C322.4,57.6,322.7,58.9,317.6,61.2z"/>
<path id="path422" class="st3" d="M306.9,59.4c0.7,0.5,1.6,0.6,2.1,1.3c0.2,0.3,0,0.5-0.3,0.6c-0.9,0.3-1.8-0.2-2.8,0.3
	c-0.3,0.2-0.9,0-1.4-0.1c-1.4-0.4-3-0.4-4.4,0.2c-1.7-1-3.7-0.5-5.5-1.3c0,0-0.2,0.3-0.3,0.2c-2.6-1-5.8-0.7-7.9-2.7
	c-2.1-0.4-4.1-0.7-6.2-1.3c-1.6-0.4-2.8-1.3-4.1-2c-1.2-0.6-2.4-1.1-3.7-1.4c-1.6-0.4-3.2-0.3-4.8-0.7c-0.1,0-0.2,0.3-0.3,0.2
	c-0.3-0.1-0.5-0.6-0.7-0.5c-1.4,0.4-2.7-0.4-4.1-0.1c-1-1-2.5-0.8-3.8-1.2c-2.5-0.7-5.2,0.4-7.8-0.5c3.5-1.6,7.5-0.5,11-2.3
	c2-1,4.3-0.1,6.5-0.7c0.4-0.1,1-0.3,1.4,0.3c0.1-0.1,0.3-0.3,0.3-0.3c2.1,1,4.1,2.1,6.2,3c0.3,0.1,0.7-0.1,1,0.1c1.3,1,3,1,4.1,2
	c1.5-0.4,3-0.1,4.5-0.6c0.1,0,0.3,0.3,0.3,0.2c1-0.6,2-0.4,2.7-0.1c0.3,0.1,0.9,0.3,1.1,0.4c1,0.2,1.7,0.6,2.7,0.8
	c0.1,0,0.3-0.3,0.3-0.3c1,0.4,1.9,0.3,2.4,1.3c0.1-0.1,0.3-0.3,0.3-0.3c0.9,0.3,1.4,0.9,2.4,1.1c0.4,0.1,0.9,0.6,1.4,0.8
	c2,0.6,3.6,1.9,5.5,2.7C305.7,58.7,306.4,58.9,306.9,59.4z"/>
<path id="path426" class="st3" d="M241.5,47.2c-2.2-1.5-4.2-2.4-6.3-3.9c-0.2-0.1-0.5,0-0.6-0.1c-0.9-0.5-1.6-1-2.5-1.6
	c-0.5-0.3-1.2-0.3-1.6-0.5c-2.2-1.1-4.4-1.6-6.6-2.6c0.6-0.5,1.5-0.3,2.1-1c0.2,0.2,0.4,0.5,0.7,0.3c1.4-0.8,3-0.9,4.4-0.8
	c1.5,0.1,2.9,0.3,4.4,0.6c0.3,0,0.4,0.5,0.7,0.6c1.9,0.6,3.9,0.1,5.8,0.8c1.4,0.5,2.7,1.2,3.8,2.3c0.2,0.2-0.1,0.5-0.3,0.6
	c0.3-0.1,0.6,0.1,0.7,0.4c0.1,0.2,0.1,0.5,0,0.7c-0.1,0.3-0.3,0.4-0.7,0.4c-1.2,0.2,0.3-1-0.3-0.6c-1.1,0.7-0.4,1.9-1.1,3
	c-0.2-0.2-0.4-0.4-0.3-0.7c0.2,0.4-0.3,0.7-0.5,1C243,46.5,242.2,47.7,241.5,47.2z"/>
<path id="path430" class="st3" d="M213.7,53.5c-2.7-0.7-5.3-0.6-7.9-1.7c-0.1,0-0.2,0.3-0.3,0.2c-1.2-0.5-2-1.3-2.9-2.2
	c-0.8-0.8-2.2-0.4-3.3-0.8c-0.3-0.1-0.5-0.5-0.7-0.6c-1-0.1-1.8-0.9-2.7-1.4c2-0.7,4.1-0.7,6.2-1c0.1,0,0.2,0.3,0.3,0.3
	c0.1,0,0.2-0.2,0.3-0.3c0.2,0.2,0.4,0.5,0.6,0.3c0.5-0.5,0.9-0.3,1.4-0.3c0.1,0,0.2,0.3,0.3,0.3c0.1,0,0.2-0.3,0.3-0.3
	c0.1,0,0.2,0.3,0.3,0.3c0.1,0,0.2-0.2,0.3-0.3c0.6,0.7,1.3,0.2,2.1,0.3c0.9,0.2,1.1,1.2,2,1.4c4,1.1,7.6,2.9,11.3,4.7
	c0.3,0.1,0.4,0.3,0.3,0.7c0.2,0,0.5-0.1,0.7,0c0.9,0.6,1.8,1.1,2.4,2c0.2,0.3-0.1,0.6-0.3,0.6C220.9,54.9,217.4,54.4,213.7,53.5z"/>
<path id="path434" class="st3" d="M201.8,91.2c-1.4-1-1.9-2.8-2.8-4.3c-0.2-0.3,0.1-0.6,0.3-0.6c0.5-0.1,0.9,0.3,1.3,0.4
	c1.5,0.7,2.8,1.8,4.5,1.9c1.7,1.9,5.3,2.2,5.3,5.1c0,0.7-1.2-0.1-1.6,0.7c-2.1-0.9-4.1-0.8-6.2-2C202.2,92.1,202.5,91.7,201.8,91.2z
	"/>
<path id="path438" class="st3" d="M178.3,46.3c0.1,0,6.1,0.2,6.1,0.3c0,0.3-6.6,1.2-7,1c-0.1-0.1-6.6,2-6.7,1.9
	C171,49.4,178.1,46.3,178.3,46.3z"/>
<path id="path442" d="M191.5,54.7c0,0-12.6,1.5-16.4,2.6c-3.8,1-19.7,7.5-22.2,9.2c0,0-11.4,4.6-26,21.7c0,0,6.5-2.9,8.4-5.3
	c0,0,11.6-10.8,11.5-8.5c0,0,10.4-7.3,9.9-5.5c0,0,20.9-9.6,19.1-6.8c0,0,18.5-3.9,17.6-2.2c0,0,16.1,3.8,13.7,3.9c0,0-5,1,0.5,4.1
	c0,0-2.9,3.8-7.5,0.3s-2.1-1.5-6.3-0.7c0,0-2.2,0.7-6.2-2.7c0,0-4.8-3.9-12.3-0.9c0,0-26.1,10.8-27.9,11.3c0,0-3.1,2.4-5.1,5.5
	c0,0-5,3.8-7.5,5c0,0-10.9,9.9-12,11.1c0,0-2.9,4.4-3.6,4.8c0,0,5.5-3.2,7.2-5c0,0,12-8.5,16.6-9.2c0,0,3.8-2.6,4.4-3.8
	c0,0,12.3-7.9,15.9-7.9c0,0,7.9,4.4,9.9-1.5c0,0,5-1.5,9.7-0.5c0,0,2.7-2.2,2.1-4.1c0,0,1.4-1.5,2.2,1.7c0,0,2.9,3.1,7,1.4
	c0,0,3.4-0.2,1.7,1.9c0,0-3.8,3.2-13.8,3.4c0,0-10.6,0.5-24.6,7c0,0-25.5,8.9-33.3,17.8c0,0-5.5,7.5-10.1,8.5c0,0-5,0.7-10.1,7
	c0,0,8.4-5,16.1-5c0,0,3.4-2.1,0.2,1c0,0-3.1,6.5-1.7,11.1c0,0-0.5,4.4-1.2,5.8c0,0-6.7,10.9-6.7,13c0,2.1,1,10.4,1.4,10.9
	s-0.9-1.4,2.4,0.7c3.2,2.1,5.6,3.4,6.3,5.8s-1.7-4.6-1.9-6.2c-0.2-1.5-3.8-7.7-3.1-9.7c0,0,0.9,0.9,1.5,2.1c0,0-0.5-0.5,0-3.6
	c0,0,0.7-4.4,1.9-7.2c1.2-2.7,2.9-6,3.2-6.7c0.3-0.7,0.3-5.6,1.5-3.4l2.9,2.2c0,0-2.4-2.2-0.5-4.1c0,0-0.9-4.8,0.7-7
	c0,0,6-7.2,7.3-8c1.4-0.9,0.2-0.5,0.2-0.5s5.1-3.6,0.2-2.2c0,0-3.4,1.4-6,1.4c0,0-6.5,1.7-3.1-1.9c3.4-3.6,12-8.2,15.2-8l0.7,1.4
	l9.6-2.1l-1,0.7c0,0-0.2-0.2,3.4-0.5c3.6-0.3,8.5,0.9,9.7-0.7c1.2-1.5,4.1-2.4,3.8-1.2c-0.3,1.2-0.5,2.9-0.5,2.9s4.3-5,3.8-3.1
	c-0.5,1.9-7.5,6.3-8.7,11.6l8.9-7l3.1-2.6c0,0,3.1,1.9,3.2,0.5c0.2-1.4,4.1-6.3,5.1-6.2c1,0.2,2.7-2.2,2.6,0
	c-0.2,2.2,6.3,6.8,6.3,6.8s2.7-1.5,3.9-0.3c1.2,1.2,4.8-16.9,4.8-16.9l21.4-9.1l37.3-2.9l-14.5-5.8L191.5,54.7z"/>
<path id="path446" class="st39" d="M207,224.7c0,0-12.8-14.4-20-16.6c0,0-11.4-5.8-32.5,0.9"/>
<path id="path450" class="st39" d="M184.3,206.9c0,0-21.5-6.8-34.7-3.2c0,0-15.7,1.7-22.9,13.5"/>
<path id="path454" class="st39" d="M181.2,205.9c0,0-14.5-6.2-27.2-8c0,0-14.2-2.2-28.4,3.9c0,0-10.4,5.1-15,13.8"/>
<path id="path458" class="st39" d="M182.1,206.2c0,0-13.2-9.4-14-10.6c0,0-6-9.4-17.1-9.7c0,0-18.3,0.7-33,7.5"/>
<path id="path462" d="M181,198.6c1.3,1.2,24.4,26,24.4,26c30.1,31.3,6.2,2.1,6.2,2.1c-6.5-4.1-14.4-20.2-14.4-20.2
	c-1-2.4,12,6.2,12,6.2c3.4,0.7,15,17.1,15,17.1c-5.8-2.1-1.7,4.1-1.7,4.1c2.4,1.7,19.8,15,19.8,15c3.1,3.4,6.5,4.8,6.5,4.8
	c12-4.4,6.5,6.8,6.5,6.8c2.1,5.8,6.8-4.1,6.8-4.1c9.6-14.4-4.4-12.3-4.4-12.3c-25.6,2.4-31.4-11.3-31.4-11.3c-2.1-2.1,5.5,0,5.5,0
	c7.2,1.7-6.2-10.6-6.2-10.6c2.1,0,9.9,5.8,9.9,5.8c8.9,7.9,10.6,6.2,10.6,6.2c15.4-7.5,24.3-1,24.3-1c1.7,1.4-3.1,7.2-1.7,11.6
	c1.4,4.4,5.5,15,5.5,15c-2,1.4-1.7,10.6-1.7,10.6c14.4,19.8,6.2,18.1,6.2,18.1c-13.3-0.3-0.7,6.2-0.7,6.2c2.7,1.7,10.3,7.9,10.3,7.9
	c-2.4-1-3.8,3.4-3.8,3.4c4.1,3.4,1.7,7.5,1.7,7.5c-5.1,1-6.2,4.4-6.2,4.4c5.8,6.8-2.7,7.2-2.7,7.2c3.1,3.8-1,14-1,14
	c-4.1,0-9.6,4.8-9.6,4.8c2.1,4.1-6.8,8.9-6.8,8.9c-7.2,1.4-4.8,7.2-4.8,7.2c-6.8,5.1-8.9,18.8-8.9,18.8c-0.7,8.9-2.7,11.6,1.7,9.9
	c4.4-1.7,3.8-12.3,3.8-12.3c-4.1-13.3,32.5-27,32.5-27c3.4-1.4,4.1-5.8,4.1-5.8c1.7,0.3,9.2,6.8,9.2,6.8c6.5,9.6,6.8,1.7,6.8,1.7
	c1-3.1-0.3-8.2-0.3-8.2c5.1-18.5-6.8-23.9-6.8-23.9c-8.5-28.7,3.4-21.5,3.4-21.5c2.4,4.8,11.6,9.2,11.6,9.2l3.1-2
	c-1.4-4.1,5.8-9.2,5.8-9.2c2.4,5.5,7.5-1.4,7.5-1.4c3.1-20.9,13.7-8.5,13.7-8.5c3.4,1,4.4-4.8,4.4-4.8c3.1-8.9,0-20.5,0-20.5
	c3.1-0.3,11.3,4.8,11.3,4.8c2.4-3.1-5.5-17.4-2.1-15.4c3.4,2.1,7.2,3.4,7.2,3.4c0.7-1.7-7.9-12.3-7.9-12.3
	c-3.8-2.4-8.2-19.8-8.2-19.8c6.2,3.1-2.4-9.9-2.4-9.9c0-2.7,5.1-12.3,5.1-12.3c-0.7-5.8,0-5.5,0-5.5c2.4,1,9.2,2.4,3.4-3.1
	c-5.8-5.5,0.7-9.6,0.7-9.6c3.8-2.4-7.9-2.1-7.9-2.1c-4.4-3.8-4.1-7.2-4.1-7.2c6.8,1.7-5.5-10.6-7.5-13.7c-2.1-3.1,6.2-7.5,6.2-7.5
	c11.3-3.1,1.4-5.8,1.4-5.8c-16.7,0.3-7.5-8.9-7.5-8.9c5.1,0.3,3.8-1.7,3.8-1.7c-4.4-1-12.6-6.5-12.6-6.5c-3.4-3.1-0.3-2.4-0.3-2.4
	c14.4,1-10.3-8.5-10.3-8.5c6.8,0-8.5-8.9-8.5-8.9c-1.7-1.4-4.4-7.9-4.4-7.9c-5.1-4.4-9.2-10.3-9.2-10.3c-0.3-3.8-4.4-7.9-4.4-7.9
	c-9.9-11.6-14.7-11.3-14.7-11.3c-12.6-3.1-17.1-2.4-17.1-2.4l-45.1,3.8c-22.6,10.9-15.9,28.9-15.9,28.9c5.5,7.2,13.3,3.9,13.3,3.9
	c3.9-5.3,13.8-3.4,13.8-3.4c17.4,2.7,15.2-0.3,15.2-0.3c-2.1-3.9-15.9-9.2-16.1-9.7c-0.2-0.5-7.7-3.4-7.7-3.4
	c-2.6-1-6.3-8.9-6.3-8.9c-2.7-2.9,10.8,2.1,10.8,2.1c-1,0.9,5.3,4.3,5.3,4.3c14.9-0.9,23.9,8.4,23.9,8.4c9.2,14.2,9.4,7.2,9.4,7.2
	c2.4-8-7.7-26.1-7.7-26.1c0.3-1.7,7.3,3.9,7.3,3.9c1.2-1.7,1.9,3.2,1.9,3.2c0.2,2.1,3.4,8.9,3.4,8.9c2.4,11.1,5.5,4.8,5.5,4.8l3.9,8
	c1.2,2.2-3.9,8.7-3.9,8.7c-0.2,2.4,0.5,2.2-4.3,8.7c-4.8,6.5-1.9,10.3-1.9,10.3c-1.2,5.6,6.3,5.3,6.3,5.3c2.2,1.9,5.1,1.9,5.1,1.9
	c1.5,1.7,3.6,1.2,3.6,1.2c1.4-3.2,6.7-1.5,6.7-1.5c1.2-2.1,8.2-2.4,8.2-2.4c0.9-2.2,1.2-3.6,4.1-4.1c2.9-0.5-18.1-37.3-18.1-37.3
	c5.5-0.7-1.5-11.3-1.5-11.3c-1.9-5.6,7.9,6.8,9.7,8c1.9,1.2,2.7,3.1,1.4,2.9c-1.4-0.2-2.9,1.7-1.7,1.9s12.3,13,15.2,21.7
	c2.9,8.7,8,12.1,13.3,17.3c5.3,5.1,4.6,25.8,4.6,25.8c-0.3,7.5,4.8,16.6,4.8,16.6c1.7,3.2-1.9,18.8-1.9,18.8
	c-1.7,1.9-0.5,2.6-0.5,2.6c0.9,1,6.7,12.3,6.7,12.3c-1.5-0.2,1.5,2.9,1.5,2.9c4.4,5.1-1,2.6-1,2.6c-5.1-1.4,0.9,7,0.9,7
	c1,1.5-6.7-2.4-6.7-2.4c-7.9-0.5,2.1,5.6,2.1,5.6c7.3,6.2-2.4,2.4-2.4,2.4c-3.9-1.5-1.2,4.3-1.2,4.3c2.7,1.4,17.4,7.3,17.4,7.3
	c0.3,3.2-2.2,7.5-2.2,7.5c0.3,3.4-1.5,6.3-1.5,6.3c-1,7-1.5,7.7-1.5,7.7c-3.6,0.2-9.9,12-9.9,12c-1.5,2.2-10.3,12.5-10.3,12.5
	c-1.7,6-17.1-0.2-17.1-0.2c-5.6,2.9-3.9,0-3.9,0c-0.3-1.9,3.8-7,3.8-7c6-2.2,3.8-11.4,3.8-11.4c3.4-1.2-6.2-3.6-6-4.6
	c0.2-1,5.1-2.2,5.1-2.2c6.8-1.7,3.1-3.8,3.1-3.8c-0.5-3.4,2.1-8.2,2.1-8.2c9.9-0.7,0-14.5,0-14.5c-9.2-6.5-10.1-11.4-10.1-11.4
	c10.8-7,3.8-17.6,3.9-20.7c0.2-3.1,1.2-21.5,1.2-21.5c-1.7-5.3-4.3-16.9-4.3-16.9c1.9-4.4,8.2-15.2,8.2-15.2c2.4-3.6,9.9-7.7,8-10.3
	c-1.9-2.6-8.5-1-8.5-1c-6.7-1.2-6.2,3.2-6.2,3.2c-1.4,0.9-2.1,5.1-2.1,5.1c-0.6,6.8-8.2,12.1-8.2,12.1c-9.6,5.3-1.7,8.7-1.7,8.7
	c5.1,5.6-3.2,5.8-3.2,5.8c-9.4-1.5-2.4,7.2-2.4,7.2c9.2,10.9,6.7,13.3,6.7,13.3c-8.7,0.9,2.1,8.7,2.1,8.7s-0.7-1.7-0.5-0.2
	c0.2,1.5,2.7,5.1,3.4,6.8c0.7,1.7-2.7,1.9-2.7,1.9c0.5,8.2-12.6,4.6-12.6,4.6s0,0-1.4,0.2s-10.9-0.5-15.9-2.4
	c-5-1.9-10.8-1.9-10.8-1.9s-3.4,1.5-9.9,1.4c-6.5-0.2-13.3,2.2-13.3,2.2c-3.8-0.3,3.6-4.1,3.8-3.9c0.2,0.2,5-4.6-1.9-4.1
	c-18.6,1.4-27.9-7.3-27.9-7.3c-1.7-1.2-3.9-3.6-3.9-3.6c-8.5-1.7,1.2,10.6,1.2,10.6c1,1.2-0.2,2.1-0.2,2.1c-0.7-1.4-7.4-6-7.4-6
	C184.1,201.8,183,200.7,181,198.6z"/>
<path id="path466" class="st40" d="M160.5,188.6c0,0,9.9,4.8,12.1,7.2c2.2,2.4,14.2,12.1,14.2,12.1s-4.6-1.7-6.8-3.2
	c-2.2-1.5-11.4-8.5-11.4-8.5S165.3,191,160.5,188.6z"/>
<path id="path470" class="st30" d="M111,162c0.3-0.1-0.2-2.4-0.3-2.9c-0.9-2.3-8.5-3.6-8.5-3.6c-0.2,1.2-0.2,2.5-0.2,3.9
	C101.9,159.4,106.1,164.1,111,162z"/>
<path id="path474" class="st31" d="M111,161.8c-0.4,0.1,0-2.3-0.2-2.7c-0.9-2.3-8.7-3.7-8.7-3.7c-0.2,1.2-0.2,2.5-0.2,3.9
	C101.9,159.3,105.6,163.7,111,161.8z"/>
<path id="path478" d="M107.2,161.9c-0.5,0-1-1-1-2.2c0-1.2,0.4-2.2,1-2.2c0.5,0,1,1,1,2.2C108.2,161,107.8,161.9,107.2,161.9z"/>
<path id="path486" d="M68.3,245.7c0,0-4.8,8.5,16.4,3.4c0,0,12-1,14-3.1c1,0.7,8.2,3.2,10.6,3.8c5.8,1.4,13-7.2,13-7.2s3.9-9,6.3-9
	c2.4,0-0.3,1.4-0.3,1.4s-5.6,8.6-5.3,10c0,0-4.4,17.1-18.1,17.8c0,0-13.8,0.8-12.6,5.8c0,0,7.5-2.1,9.6,0c0,0,9.2-0.3,2.4,5.1
	l-5.8,9.9c0,0,0.1,3.3-8.5,0.3c-8.4-2.9-17.2-13.9-17.2-13.9S59,257.6,68.3,245.7z"/>
<path id="path490" class="st41" d="M67.2,249.1c0,0-1.7,8.2,29.7-0.7c0,0,3.8,0,5.8,0.7s12.3,3.1,14,2.1c0,0-6.2,11.6-16.1,10.3
	c0,0-11.3,1.4-10.9,5.5c0,0,3.4,6.2,7.5,8.2c0,0,2.4,2.1,2.1,4.8c-0.3,2.7-2.7,4.1-4.4,4.8c-1.7,0.7-4.4-2-5.8-2
	c-1.4,0-8.5-5.5-12.3-9.6c-3.8-4.1-10.9-14.4-10.6-16.7C66.6,253.9,67.2,249.1,67.2,249.1z"/>
<path id="path494" class="st42" d="M70,264.1c2.2,3.4,5,7,6.8,9c3.8,4.1,10.9,9.6,12.3,9.6c1.4,0,4.1,2.7,5.8,2
	c1.7-0.7,4.1-2,4.4-4.8c0.3-2.7-2.1-4.8-2.1-4.8c-2.6-1.3-5-4.3-6.3-6.3c0,0,0.2,2.2-4.3,1.5c-4.4-0.7-8.9-3.1-10.3-5.8
	c-1.4-2.7-3.4-4.8-2.1-1.7c1.4,3.1,3.4,6.2,4.8,6.5c1.4,0.3,1,1.4-1,1c-2.1-0.3-4.4-0.7-8.2-5.1L70,264.1L70,264.1z"/>
<path id="path498" class="st38" d="M67.7,246.1c0,0,1.5-11.6,2.6-15c0,0-0.7-5.8,1.4-9.4s3.8-8.9,6.3-13.5c2.6-4.6,2.7-8,6.2-9.4
	c3.4-1.4,8.5-8.7,10.9-9.6c2.4-0.9,2.2-0.2,2.2-0.2s5.8-12.6,17.4-9.2c0,0-13.8-2.4-0.3-10.4c0,0-4.1,0.9-1.3-5
	c1.9-4,1.5,1.8-7.9,11.9c0,0-4.3,7.3-8.7,9.9s-14.7,8.5-15.7,11.8s-3.8,8.2-5.5,9.6s-4.1,5-4.4,7.9c0,0-1,3.4-2.2,4.4
	c-1.2,1-1.4,3.8-1.4,5.5c0,1.7-1.7,4.1-1.5,6.2c0,0,0.7,16.2,0.3,17.9L67.7,246.1z"/>
<path id="path502" class="st14" d="M60.4,250c0,0-1.7-1.2-5.5,3.9c0,0,6.2,28.2,6.2,29.4c0,0,0.9-1.8-0.2-7.9
	c-1.1-6.2-1.9-17-1.9-17L60.4,250z"/>
<path id="path506" class="st38" d="M78.9,198.2c0,0-15,2.7-14.7,27.7l-0.7,21.2c0,0-1-21.9-2.1-23.2c-1-1.4,2.4-10.9-0.3-5.8
	c0,0-12,12-5.1,30.1c0,0,1.3,2.8-1.3-1.1c0,0-3.9-10.8-3-16.2c0,0,0.2-1.9,1.8-4.3c0,0,7.3-10,9.7-12c0,0,1.5-12.3,14.7-16.7
	C77.8,197.8,82.7,195.8,78.9,198.2z"/>
<path id="path510" d="M198,141.6c0.6-0.3,0.6-1.1,1.1-1.3c1-0.3,1.1-1.2,1.6-1.9c0.7-1.1,0.9-2.4,1.4-3.7c0.2-0.6,0.3-1.4,0-2
	c-1-2.1-1.6-4.2-2.8-6.3c-0.2-0.4-0.5-1.1-0.6-1.6c-0.4-1.2-1.5-2-2.2-3.2c-0.2-0.4,0.2-1.2-0.4-1.2c-0.8-0.1-2-0.6-2.2,0.3
	c-0.5,2.2,0.4,4.4,1.2,6.5c-0.7,0.6-0.4,1.4-0.3,2c0.6,3.1-0.4,5.9-1.1,8.9c0,0.1,0.3,0.3,0.2,0.3c-1,2.3-2.3,4.4-3.8,6.4
	c-0.6,0.8-1.4,1.6-1.8,2.5c-0.3,0.7-0.7,1.5-0.4,2.3c-2.9,2.4-4.9,5.7-7.1,8.9c-0.4,0.6-0.1,1.6,0.3,1.8c0.7,0.3,1.5-0.5,1.9-1.3
	c0.3-0.6,0.6-1.2,1.1-1.7c0.1-0.1,0-0.5,0.1-0.6c2.2-2,3.7-4.5,5.8-6.5c1.7-0.3,3-1.1,4.5-2c0.3-0.2,0.7,0.1,1-0.1
	c1.5-1,1.5-2.7,1.6-4.4C196.8,143.3,197,142.2,198,141.6z"/>
<path id="path514" d="M190.4,137.8c0.1-0.1,0-0.4,0.1-0.6c0.1-0.3,0.5-0.4,0.6-0.7c0.1-0.2,0-0.5,0.1-0.6c2-2.1,2.2-4.7,1.3-7.2
	c0.9-0.5,0.9-1.6,0.6-2.3c-0.7-1.5-0.9-3.1-1.7-4.4c-0.7-1.1-2-2.1-3.2-1c-0.4,0.3-0.6,1-0.4,1.6c0.1,0.1,0.3,0.3,0.3,0.3
	c-0.1,0.3-0.6,0.5-0.6,0.7c0,1.3-0.8,2.6-0.3,3.7c0.7,1.4,1.4,3,1.9,4.5c-1.1,1.8-0.2,3.9-1.7,5.5c-0.1,0.1-0.1,0.5,0,0.6
	c0.2,0.4,0.6,0.8,1,1c0.2,0.1,0.5,0.1,0.6,0C189.6,138.6,189.9,138.2,190.4,137.8z"/>
<path id="path518" d="M244.1,129c1.2,1.5,1.4,3.9-0.3,5.1c0.5,2.8,3.3,1.1,5.1,0.7c-0.1-0.3,0.1-0.6,0.3-0.6c0.9,0,1.5-0.9,2.4-0.7
	c0.4-1.3,1.8-1.9,2.3-3.1c1.5-3.2,1-6.8-1.2-9.6c-0.2-0.2,0-0.7-0.1-1c-0.6-1.9-2.4-2.2-4.1-2.7c-1-3.3-1.6-6.8-3.1-9.9
	c-1.4-0.2-2-1.7-3.1-2.3c-1.1-0.6-1.6,0.7-1.6,1.6c0,0.2,0.4,0.4,0.2,0.7c-0.1,0.1-0.3,0.2-0.3,0.3c0,0.1,0.2,0.2,0.3,0.3
	c-0.8,0.7-2,1.1-2.3,2.1c-0.8,3.2,1.4,5.8,2.8,8.6c0.5,1-0.1,2.1-0.8,3.1c-0.4,0.6-0.3,1.6,0,2.3C241.4,125.8,242.8,127.3,244.1,129
	z"/>
<path id="path522" d="M212.3,144.7c-1.3,1.6-4.2,3.8-1.7,5.4c0.2,0.1,0.5,0.1,0.6,0c1.7-1.3,3.4-2.1,5.5-2.6c0.1,0,0.3,0.4,0.7,0.2
	c1.4-0.6,3.1-0.6,4.1-1.7c3.2,0.2,6.3-0.8,9.2-1.9c1-0.4,2.1-0.9,3.1-1.3c1.2-0.5,2.2-1.3,3.2-2.3c0.1-0.1,0.4,0,0.6,0
	c0-0.7,0.8-0.8,1-1.4c0.1-0.2-0.1-0.5,0.1-0.6c1.8-1.4,2.6-3.1,1.6-5.1c-0.2-0.5-0.5-1-0.9-1.4c-0.9-0.8-1.9,0-2.8-0.3
	c-0.1,0.5-0.8,0.4-1.1,0.6c-0.7,0.4-1.9-0.1-2.6,0.2c-1.2,0.6-2.2,0.7-3.4,1.1c-0.3,0.1-0.9,0-1.1,0.5c-0.1-0.1-0.2-0.3-0.3-0.3
	c-1.6,0.3-2.7,0.5-3.8,2c-0.1,0.1-0.5,0-0.6,0.1c-0.8,0.7-1.2,1.7-2.1,2.3c-0.2,0.1-0.5,0-0.6,0.1c-0.6,0.4-0.9,0.9-1.4,1.3
	c-0.3,0.2-0.6-0.1-0.6-0.3c0.2-1.7,0.8-3.2,0.3-4.8c1.8-2.2,3.9-3.8,5.5-6.2c0-1.9,0.6-3.7,0.5-5.5c0-0.2-0.3-0.8-0.4-1.1
	c-0.3-0.7,0.5-1.6-0.2-2.3c-1.2-1-2.3-0.3-3,0.9c-1.6,0.3-3.3,0.9-4.7-0.1c-0.9-0.7-1.4-1.4-2-2.3c-0.8-1.1-0.6-2.3-0.5-3.7
	c0-0.1-0.3-0.2-0.3-0.3c0-0.1,0.2-0.2,0.3-0.3c-0.6-0.5-0.8-1.4-1.7-1.7c0.3-0.9-0.3-1.7-1.1-1.9c-1.7-0.6-3.1,1-4.8,1.1
	c-0.4,0-0.8-0.9-1.4-1.1c-0.4-0.2-1-0.2-1.3,0c-0.6,0.4-1.1,0.5-1.7,0.7c-1.4,0.4-2.5,1.3-3.7,2c-1.3,0.7-2.1,2-3,3.1
	c-0.8,1-0.9,3,0.3,3.5c1.6,0.6,2.7-1.8,4.4-1.5c0.3,0,0.4,0.3,0.4,0.6c0.3,0.1,0.5-0.1,0.7-0.3c0.7,0.9,1.7,1.2,2.5,1.9
	c0.8,0.8,2.3,0.4,3.2,1.3c1.3,1.3,0.8,3.6,2.5,4.7c-0.5,1.1-1,2.2-1.3,3.4c-0.2,1,0.6,2.1,1.6,2c1.1-0.1,1.3-0.7,1.7-1.6
	c0.2,0.2,0.6,0.5,0.6,0.7c-0.4,2-1.3,3.7-1.7,5.8c-0.1,0.3-0.3,0.4-0.6,0.4c-0.4,3.5-3.9,5.6-6,8.3c-0.3,0.4-0.3,1.5,0,1.8
	c1.2,1.2,2.9-0.1,4.3-0.6c0.2-1,0.9-1.8,2.1-1.8c0.2,0,0.4-0.5,0.7-0.6c0.3-0.1,0.7,0.1,1-0.1c1.5-1,2.7-2,4.2-3
	c0.2-0.1,0.5,0,0.6-0.1c0.3-0.1,0.4-0.5,0.7-0.6c0.3-0.2,0.5,0.1,0.7,0.3c-0.6,0.3-0.6,1.1-1.1,1.3c-0.7,0.2-1.1,0.7-1.7,1
	c-0.2,0.2-0.8,0-0.9,0.1C214,143.6,212.9,144,212.3,144.7z"/>
<path id="path526" d="M165,57.5c0,0-7.9-2.5-17.4,19.5c0,0-2.1,4.4-4.1,6.2c-2.1,1.7-11.6,4.8-13.3,8.2l-8.9,13.7
	c0,0,12.6-13.7,15.4-15.7c0,0,6.8-7.2,4.1-1.4c0,0-12,9.2-10.9,17.1c0,0-4.8,12.3-5.5,14c0,0,13.7-27.3,15.7-28.4s3.1-1,2.1,2.1
	c-1,3.1-1.4,17.1-3.8,18.8c0,0,6.8-17.4,6.2-20.2c0,0,2.7-3.1,4.8,1.4l-1,13.7l3.8,10.3c0,0-2.1-9.6-0.7-22.9c0,0-1.7-8.9,1.7-4.1
	c3.4,4.8,11.6,9.9,11.6,14c0,0-4.4-15-12.3-19.1l-3.4,5.1l-1-1.7c0,0-3.1-0.7,0.7-6.5c3.8-5.8,3.4-6.5,3.4-6.5s5.5,6.2,6.8,6.2
	c0,0,11.3-6.5,12.3,14.4c0,0,5.8-12.3-2.1-18.1c0,0-12.6-1.7-11.6-6.2l6.2-10.6c3.1-4.4,1.7-2.1,1.7-2.1L165,57.5z"/>
<path id="path530" d="M147.9,116.5c0,0-10.9,0-13.7,4.4l-6.2,8.2c0,0,14.7-8.5,18.1-9.6C149.6,118.6,147.9,116.5,147.9,116.5z"/>
<path id="path534" d="M113.7,122c0,0-1.7,1-2.1,3.4c-0.3,2.4-2.4,2.7-1.7,5.1c0.7,2.4,2.4,4.4,2.4,1s1.4-5.1,2.1-6.2
	S116.5,120.6,113.7,122z"/>
<path id="path538" d="M106.2,174.3c0,0-7.2-3.4-9.9-6.5c-2.7-3.1-2.3,1.3-6.5,1c-5-0.4-4.1-14-4.1-14l-3.4,6.5c0,0-1,12.3,5.8,10.3
	c3.3-1,4.4,0.3,3.1,1c-1.4,0.7,4.8,1,2.4,2.4c-2.4,1.4,9.9-3.1,7.9,5.8L106.2,174.3z"/>
<path id="path542" d="M95.4,186.6c0,0-13.2,3.8-16.2-4.4c0,0-4.1,2.1-2.2,4.6s2.9,2.9,2.9,2.9s4.6,1,4.1,1.7s-2.6,3.6-2.6,3.6
	S90.1,189.8,95.4,186.6z"/>
<path id="path546" class="st14" d="M290.6,253.4c-0.4,1.8-1.8,2.5-3.4,3.1c-1.6-0.8-3.9-3.5-5.5-1.7c-0.4-0.4-1.1-0.5-1.4-1
	c-0.4-0.8-0.2-1.7-0.5-2.3c-0.5-1.1-1.1-2.3-0.9-3.5c1.5-0.6,2.1-2.2,1.6-3.7c-0.1-0.2-0.4-0.4-0.3-0.7c0.2-0.3,0.4-0.5,0.7-0.7
	c-0.1,0.1-0.2,0.3-0.3,0.3c-0.5-0.1-0.4-0.6-0.3-1c0.5-1.5,2.2-1.7,3.4-0.7c0.2-0.5,0.7-0.3,1-0.3c0-0.5,0.3-0.9,0.5-1.3
	c0.4-0.9,1.8,0,2.5-0.5c0.9-0.7,1.8-1.3,2.7-0.8c1.5,0.9,3,1.9,4,3.4c0.5,0.7,0.7,1.8,0.6,2.6c0,0.6-1.2,0.3-1.5,1
	c-0.6,1.5,1,1.9,1.7,3.1c0.2,0.3-0.1,0.6-0.3,0.6c-0.4,0.1-1-0.1-0.9,0.3C295,252.3,292.6,252.9,290.6,253.4z"/>
<path id="path550" class="st14" d="M282.4,270.2c0-1.5-1.4-3-0.3-4.4c0.1,0.1,0.2,0.3,0.3,0.3c0.1,0,0.2-0.2,0.3-0.3
	c1.3,1.9,4.4,2.7,4.3,5.1c0,0.4-0.9,1.2-0.2,1.7c-1.5,1.2-1.6,3.2-2.4,4.8c-1.1-0.2-2.1-0.6-3.1-1c0.3-1.3,0.2-2.7,0.9-3.8
	C282.6,271.9,282.4,271,282.4,270.2z"/>
<path id="path554" class="st15" d="M140.4,262.5c0,0-14.4,8.7-2.4-4.4c7.5-8.2,16.1-13,16.1-13s8.9-3.8,12-4.8s16.1-5.5,18.8-5.8
	c2.7-0.3,10.9-3.8,16.7-0.3c5.8,3.4,12.6,7.2,12.6,7.2s-14-7.2-17.1-5.1s-9.2,1.7-14.4,4.4c0,0-12.6,3.8-15.4,5.5
	s-11.6,11.6-13,10.9c-1.4-0.7,0.3-1,1.4-3.4c1-2.4-0.7-3.8-7.5,1.7C141.4,260.8,140.4,262.5,140.4,262.5z"/>
<path id="path558" d="M146.7,257.4c0,0,1.2-11.1,8.4-9.7c0,0,7-3.6,9.4-5.2c0,0,7-1.5,8.1-2c15.8-7.4,28.4-3.6,28.8-4.5
	c0.5-1,17.2,5.1,20.3,8.6c0.3,0.4-8.7-4.8-17-6.4c-7.1-1.4-25.5,0.2-34.8,4.9c-2.5,1.3-10.2,6.2-12.3,6.1
	C155.4,249.1,146.7,257.4,146.7,257.4z"/>
<path id="path562" class="st15" d="M143.5,279.2c0,0-13-2.1,1.4-3.4c0,0,15.4-1.7,18.8-6.2c0,0,11.6-7.9,14-8.2
	c2.4-0.3,28-6.5,28.4-8.5c0.3-2.1,5.1-2.1,6.5-1.4c1.4,0.7,0.7,1.7-1.7,2.4c-2.4,0.7-29.1,14.7-34.5,15.7c-5.5,1-15.4,7.5-19.5,8.5
	C152.7,279.2,143.5,279.2,143.5,279.2z"/>
<path id="path566" d="M160.1,272.9c0,0-7.3-0.7,0-1.4c0,0,7.5-2.9,9.3-5.2c0,0,5.9-4,7.2-4.2c1.2-0.2,13.2-3.3,13.3-4.4
	s29.3-11.8,33.1-9.1c2.5,1.8-6,0.4-14.2,4.1c-1.2,0.5-30.1,13-32.9,13.5c-2.8,0.5-7.9,3.9-10,4.4
	C163.8,271.2,160.1,272.9,160.1,272.9z"/>
<path id="path570" d="M153.4,274.8c0,0,4.4-0.3,3.4,1c-1,1.4-3.1,0.7-3.1,0.7L153.4,274.8z"/>
<path id="path574" d="M147.2,276.1c0,0,4.4-0.3,3.4,1c-1,1.4-3.1,0.7-3.1,0.7L147.2,276.1z"/>
<path id="path578" d="M138.3,277.5c0,0,4.4-0.3,3.4,1c-1,1.4-3.1,0.7-3.1,0.7L138.3,277.5z"/>
<path id="path582" d="M131.8,278.2c0,0,4.4-0.3,3.4,1c-1,1.4-3.1,0.7-3.1,0.7L131.8,278.2z"/>
<path id="path586" d="M164.6,244.4c0,0,3.8,0,2.7,1.4c-1,1.4-3.8,1-3.8,1L164.6,244.4z"/>
<path id="path590" d="M156.1,249.1c0,0,5.6-1.8,3.4,1c-1,1.4-3.1,0.7-3.1,0.7L156.1,249.1z"/>
<path id="path594" d="M146.5,253.2c0,0,4.4-0.3,3.4,1c-1,1.4-3.1,0.7-3.1,0.7L146.5,253.2z"/>
<path id="path598" d="M140,258.4c0,0,4.4-0.3,3.4,1c-1,1.4-3.1,0.7-3.1,0.7L140,258.4z"/>
<path id="path602" d="M134.2,262.5c0,0,4.4-0.3,3.4,1c-1,1.4-3.1,0.7-3.1,0.7L134.2,262.5z"/>
<path id="path606" d="M167.6,267.9c0,0,5.9-0.5,4.5,1.4s-4.1,0.9-4.1,0.9L167.6,267.9z"/>
<path id="path610" d="M176.5,263.8c0,0,5.9-0.5,4.5,1.4c-1.4,1.8-4.1,0.9-4.1,0.9L176.5,263.8z"/>
<path id="path614" d="M185.7,260.1c0,0,5.9-0.5,4.6,1.4s-4.1,0.9-4.1,0.9L185.7,260.1z"/>
<path id="path618" d="M194.6,256c0,0,5.9-0.5,4.5,1.4c-1.4,1.8-4.1,0.9-4.1,0.9L194.6,256z"/>
<path id="path622" d="M171,240.6c0,0,5.9-0.5,4.5,1.4c-1.4,1.8-4.8,1.6-4.8,1.6L171,240.6z"/>
<path id="path626" d="M179.6,237.9c0,0,5.9-0.5,4.5,1.4c-1.4,1.8-5.1,1.6-5.1,1.6L179.6,237.9z"/>
<path id="path630" d="M160.2,272c0,0,4.4-0.3,3.4,1c-1,1.4-3.1,0.7-3.1,0.7L160.2,272z"/>
<path id="path634" class="st38" d="M97.7,187.3c0,0-3.8,7.5-4.1,10.3c0,0,0.7-7.5,1.7-9.2S97.7,187.3,97.7,187.3z"/>
<path id="path638" class="st38" d="M81.9,199.2c0,0-2.7,12.3-2.4,14.7c0,0-1-9.9-0.7-10.9C79.2,202,81.9,199.2,81.9,199.2z"/>
<path id="path642" class="st15" d="M99.7,135.5l-0.2,2.7l-1.9,0.2c0,0,12.1,10.8,12.6,17.3C110.3,155.7,111,148.7,99.7,135.5z"/>
<path id="path646" d="M103.1,136.6c-0.4-0.4-0.2-1-0.5-1.2c-0.7-0.4,1.1-0.5,0.9-1.1c-0.3-1-0.2-1-0.3-2.1c0-0.5,0.5-1.8,0.8-2.2
	c1.2-1.4,0.1-3.9,1.5-5.2c0.3-0.2,0.6-0.7,0.8-1.1c0.6-0.8,1.6-1.2,2.4-1.9c0.3-0.2,0.1-0.9,0.6-0.9c0.6,0.1,1.7,0,1.6,0.7
	c-0.1,1.8-1.2,3.3-2.3,4.7c0.4,0.6,0,1.1-0.2,1.6c-1.1,2.2-1,4.7-1.1,7.1c0,0.1-0.3,0.1-0.3,0.2c0.3,2,0.8,3.9,1.6,5.8
	c0.3,0.8,0.7,1.6,0.8,2.4c0.1,0.6,0.2,1.3-0.2,1.9c1.7,2.5,0.6,4.7,1.6,7.8c0.2,0.5,1.6,2.2,1.2,2c-2.1-0.7-2.2-1.1-2.4-1.7
	c-0.1-0.5-0.4-1.7-0.6-2.2c-0.1-0.1-0.2-1.8-0.3-1.9c-1.3-2-0.1-1.9-1.3-3.9c-1.2-0.6-2-1.5-3-2.5c-0.2-0.2,0.8-0.8,0.7-1
	c-0.9-1.1-1.9-1.8-1.6-3C103.6,138.1,103.7,137.2,103.1,136.6z"/>
<path id="path650" d="M100,138.1c0,0,0.3,5.8,2.4,7.2c2.1,1.4,1,0.7-1.7-0.3c-2.7-1-1.7-1.7-1.7-1.7s-2.4,0.3-0.3,2.1
	s5.1,3.8,3.8,3.8s-7.9-3.4-7.9-5.8c0-2.4-0.9-5.9-0.9-5.9s0.9-0.7,5-0.6C98.8,136.7,100,137.3,100,138.1z"/>
<path id="path654" class="st43" d="M99.4,154c0,0-7.3-2.4-23.1,0.5c0,0,7.7-1.8,23.8,0.2C108.8,155.7,99.4,154,99.4,154z"/>
<path id="path658" class="st43" d="M101.2,153.9c0,0-7-3-23-1.5c0,0,7.8-1.1,23.7,2.2C110.5,156.5,101.2,153.9,101.2,153.9z"/>
<path id="path662" class="st43" d="M102.7,154c0,0-6.8-3.5-22.9-3.2c0,0,7.9-0.5,23.4,4C111.8,157.2,102.7,154,102.7,154z"/>
<path id="path666" class="st43" d="M103.8,154.2c0,0-5.8-3.7-20.2-4.6c0,0,7.1,0.1,20.7,5.4C111.7,157.8,103.8,154.2,103.8,154.2z"
	/>
<path id="path670" class="st43" d="M202.3,163.1c0,0-0.8,0.6-0.6-0.5c0.2-1,24.3-12.3,27.4-12C229,150.6,203.2,161.9,202.3,163.1z"
	/>
<path id="path674" class="st43" d="M199.4,163.7c0,0-0.7,0.6-0.6-0.4c0.1-1,23.2-14.1,26.3-14.2
	C225.1,149.1,200.2,162.4,199.4,163.7z"/>
<path id="path678" class="st43" d="M196.6,164.9c0,0-0.7,0.7-0.7-0.4c0-1,17-14.3,25.4-15.9C221.2,148.6,205.8,155.6,196.6,164.9z"
	/>
<path id="path682" class="st43" d="M194.1,166.5c0,0-0.6,0.6-0.6-0.3c0-0.9,15.3-12.8,22.8-14.3
	C216.3,151.8,202.5,158.1,194.1,166.5z"/>
<path id="path686" class="st15" d="M167,292.9c0,0-13-2.1,1.4-3.4c0,0,15.4-1.7,18.8-6.2c0,0,11.6-7.9,14-8.2s16.4-3.4,16.7-5.5
	c0.3-2.1,5.5-4.1,6.8-3.4c1.4,0.7,1.4,8.5-1,9.2c-2.4,0.7-18.5,6.8-23.9,7.9c-5.5,1-15.4,7.5-19.5,8.5
	C176.3,292.9,167,292.9,167,292.9z"/>
<path id="path690" d="M229.4,260.9c0,0-2.6,1.4-3.6,3.6c0,0-5.5,9.1-17.6,11.8c0,0-19.7,7.7-26.3,9.4c0,0-11.4,4.3-17.8,3.6
	c0,0-6,0.2-0.7,1.5c0,0,17.3-1.7,20.2-3.2c0,0,13.3-4.4,15.9-6.7c2.6-2.2,18.1-6.5,20-8.2C221.4,271,229.8,263.8,229.4,260.9z"/>
<path id="path694" d="M179.2,287.9c0,0,4.5-0.2,3.5,1.1c-1,1.3-3.1,0.6-3.1,0.6L179.2,287.9z"/>
<path id="path698" d="M173.1,289c0,0,4.5-0.2,3.5,1.1c-1,1.3-3.1,0.6-3.1,0.6L173.1,289z"/>
<path id="path702" d="M164.2,290.1c0,0,4.5-0.2,3.5,1.1c-1,1.3-3.1,0.6-3.1,0.6L164.2,290.1z"/>
<path id="path706" d="M157.7,290.5c0,0,4.5-0.2,3.5,1.1c-1,1.3-3.1,0.6-3.1,0.6L157.7,290.5z"/>
<path id="path710" d="M193.4,281.5c0,0,5.9-0.3,4.6,1.5c-1.3,1.8-4.1,0.8-4.1,0.8L193.4,281.5z"/>
<path id="path714" d="M202.2,277.8c0,0,5.1-2.8,4.6,1.5c-0.2,2.2-4.1,0.8-4.1,0.8L202.2,277.8z"/>
<path id="path718" d="M210,275.4c0,0,6.1-3.2,4.6,1.5c-0.7,2.1-4.1,0.8-4.1,0.8L210,275.4z"/>
<path id="path722" d="M218.1,271.2c0,0,3.7-4.2,4.6,1.5c0.3,2.2-4.1,0.8-4.1,0.8L218.1,271.2z"/>
<path id="path726" d="M186,285.4c0,0,4.5-0.2,3.5,1.1c-1,1.3-3.1,0.6-3.1,0.6L186,285.4z"/>
<path id="path730" class="st43" d="M216.5,181.6c0,0-0.6,0.6-0.6-0.3c0-0.9,14.9-12.2,22.5-13.4
	C238.3,167.9,224.6,173.6,216.5,181.6z"/>
<path id="path734" d="M219,236.2c0,0,18.8,19.1,26.7,22.2c0,0,7.9,9.6,4.4,31.8c0,0-2.7,6.5-5.5-11.3c0,0,2.7-21.5-6.8-7.9
	c0,0-7.2-8.5-1.7-8.2c0,0,2.7,1.7,3.1,0.3c0.3-1.4-6.5-13-21.2-25.3C203.3,225.6,219,236.2,219,236.2z"/>
<path id="path738" class="st43" d="M169.1,269.3c0,0-0.2-1.5,1.4-0.9c1.5,0.7,82,6,109,26.5C279.5,294.9,240.9,275.1,169.1,269.3z"
	/>
<path id="path742" class="st43" d="M178,265.5c0,0-0.2-1.5,1.4-0.9c1.5,0.7,118.3-0.2,138.4,27.5C317.8,292.2,299,270.7,178,265.5z"
	/>
<path id="path746" class="st43" d="M187.9,262.1c0,0-0.2-1.5,1.4-0.9c1.5,0.7,149.7-10.4,169.9,17.3
	C359.1,278.5,350.9,256.7,187.9,262.1z"/>
<path id="path750" class="st43" d="M196.4,258c0,0-0.2-1.5,1.4-0.9c1.5,0.7,106-32.3,126.1-4.6C323.9,252.6,312.5,231.5,196.4,258z"
	/>
<path id="path754" class="st43" d="M146.9,277.5c0,0-0.2-1.5,1.4-0.9c1.5,0.7,16.7,2.6,18.5,35.7
	C166.7,312.4,160.5,276.5,146.9,277.5z"/>
<path id="path758" class="st43" d="M139.4,278.9c0,0-0.2-1.5,1.4-0.9c1.5,0.7,13.7-3.2,11.3,29.9C152,307.9,153,277.9,139.4,278.9z"
	/>
<path id="path762" class="st43" d="M132.5,279.2c0,0-0.2-1.5,1.4-0.9c1.5,0.7,14.7,1.2,4.1,20.3C138,298.7,146.2,278.2,132.5,279.2z
	"/>
<path id="path766" class="st43" d="M173,241.3c0,0-0.4,1.7,0.9,0.7c13.7-10.8,41.5-61.1,89-65.9C262.9,176.1,230.2,165.7,173,241.3z
	"/>
<path id="path770" class="st43" d="M182.5,239.8c0,0-1.2-1,0.4-1.6s97.7-62.5,131.2-55.7C314.2,182.6,291,176.1,182.5,239.8z"/>
<path id="path774" class="st43" d="M164.7,245c0,0-0.4,1.4,1,0.5c7.7-4.4,10.8-53.3,48-54.3C213.7,191.2,186,178.6,164.7,245z"/>
<path id="path778" class="st43" d="M147.7,254.4c0,0-0.9,1.1,0.7,0.9c8.8-1.1,27-36.4,65-32.1C213.5,223.2,186.1,211,147.7,254.4z"
	/>
<path id="path782" class="st43" d="M157.3,249.2c0,0-0.7,1.3,0.9,0.7c8.4-2.8,19.6-40.9,57.7-43.9
	C215.9,206,186.7,199.2,157.3,249.2z"/>
<path id="path786" class="st43" d="M141.7,258.8c0,0-0.7,0.9,0.6,0.7c7.1-0.9,21.9-29.5,52.7-26
	C194.9,233.5,172.8,223.6,141.7,258.8z"/>
<path id="path790" class="st43" d="M135.2,263.9c0,0-0.9,0.9,0.5,0.8c3.6-0.3,29.7-28.5,45.5-15.3
	C181.2,249.4,170.9,233.4,135.2,263.9z"/>
<path id="path794" class="st43" d="M194.6,236.6c0,0-1-1.2,0.6-1.5c1.6-0.3,104.8-49.6,137.2-38.6
	C332.4,196.4,310.3,187.1,194.6,236.6z"/>
<path id="path798" class="st43" d="M166,291.5c0,0-0.2-1.5,1.4-0.9c1.5,0.7,14.7,1.2,4.1,20.3C171.5,311,179.7,290.5,166,291.5z"/>
<path id="path802" class="st43" d="M174.9,290.2c0,0-0.2-1.5,1.4-0.9c1.5,0.7,16.7,2.6,18.5,35.7C194.7,325,188.6,289.1,174.9,290.2
	z"/>
<path id="path806" class="st43" d="M180.7,288.8c0,0-0.2-1.5,1.4-0.9c1.5,0.7,22.6,3.6,42.7,31.3
	C224.8,319.2,194.4,287.8,180.7,288.8z"/>
<path id="path810" class="st43" d="M187.2,287.1c0,0-0.4-1.5,1.2-1s19.1-1.1,51.6,28.1C240.1,314.1,200.6,284.2,187.2,287.1z"/>
<path id="path814" class="st43" d="M196.1,283.3c0,0-0.4-1.5,1.2-1s31.4,4.3,75.6,34.2C272.9,316.5,209.5,280.5,196.1,283.3z"/>
<path id="path818" class="st43" d="M161.6,273.4c0,0-0.2-1.5,1.4-0.9c1.5,0.7,47.2,2.9,73.1,25.8
	C236.1,298.4,206.3,277.2,161.6,273.4z"/>
<path id="path822" class="st43" d="M153,276.8c0,0-0.2-1.5,1.4-0.9c1.5,0.7,22.6,3.6,42.7,31.3C197.1,307.2,166.7,275.8,153,276.8z"
	/>
<path id="path826" class="st43" d="M205.4,279.4c0,0-0.5-1.5,1.2-1.1c1.6,0.4,31.6,2,77.9,28.6C284.4,306.8,218.1,277.4,205.4,279.4
	z"/>
<path id="path830" class="st43" d="M212.6,277.3c0,0-0.5-1.5,1.2-1.1c1.6,0.4,31.6,2,77.9,28.6C291.6,304.8,225.8,275,212.6,277.3z"
	/>
<path id="path834" class="st43" d="M220.8,273c0,0-0.5-1.5,1.2-1.1c1.6,0.4,38.4,4.1,115.1,33.4C337.1,305.3,234,270.8,220.8,273z"
	/>
<path id="path838" d="M125.7,278.9c0,0,4.4-0.3,3.4,1c-1,1.4-3.1,0.7-3.1,0.7L125.7,278.9z"/>
<path id="path842" d="M152,290.8c0,0,4.4-0.3,3.4,1c-1,1.4-3.1,0.7-3.1,0.7L152,290.8z"/>
<path id="path846" d="M144.5,290.5c0,0,4.4-0.3,3.4,1c-1,1.4-3.1,0.7-3.1,0.7L144.5,290.5z"/>
<path id="path850" d="M63,280.4c0,0,4.3,1.1,2.9,2.1s-3.1-0.4-3.1-0.4L63,280.4z"/>
<path id="path854" d="M64.7,272.2c0,0,4.3,1.1,2.9,2.1c-1.4,1-3.1-0.4-3.1-0.4L64.7,272.2z"/>
<path id="path858" d="M58.5,268.4c0,0,4.3,1.1,2.9,2.1c-1.4,1-3.1-0.4-3.1-0.4L58.5,268.4z"/>
<path id="path862" class="st15" d="M126.7,332.5c0,0-1.4,0-4.8,1.7c-1.7,0-11.3,3.1-16.1,11.6C105.9,345.9,116.5,337.7,126.7,332.5z
	"/>
<path id="path866" class="st15" d="M201.7,411.7c0.1,0.2,0.2,0.6,0.4,0.6c0.6,0,1.6,0.3,1.5-0.3c-0.7-3.7-1.5-7.9-5-9.4
	c-0.5-0.2-1.8,0.1-1.8,0.9c-0.1,1.3-0.2,2.5,0.1,3.7c0.3,1.2,2.1,1.2,2.9,0C200.5,408.6,200.8,410.2,201.7,411.7z"/>
<path id="path870" class="st15" d="M192.2,415.7c0.6,1.2,0.5,2.8,1.7,3.3c0.6,0.3,2.2-0.6,1.9-1.5c-0.7-1.8-1-3.7-2.2-5.2
	c-0.2-0.2,0-0.7-0.1-1c-0.5-1-1.5-1.7-2.7-1.4c-1,1.9,0,3.7,1.3,5.2C192.2,415.2,192.1,415.6,192.2,415.7z"/>
<path id="path874" class="st15" d="M158.4,411.3c-0.1-0.3-0.1-0.7,0-1c0.5-0.9,1.1-1.8,0.8-2.7c-0.3-0.9-1.3-0.7-1.8-0.3
	c-1,0.9-1,2.4-1.6,3.6c-0.2,0.3-0.1,0.8-0.5,1.2c-0.4,0.4-0.8,1.7-0.7,2.1c0,0.3-0.1,8.7,0.1,8.5c0.5-0.6,3.1-8.9,3.2-9.7
	C157.9,412.4,158.6,412,158.4,411.3z"/>
<path id="path878" class="st15" d="M136.4,405.5c2.2-2.1,4.6-4.7,4.3-7.8c-0.1-0.8-1.6-0.4-1.8,0.3c-0.7,3.1-2.4,5.4-4.6,7.4
	c-1.9,1.7-3.5,7.2-3.7,7.6C133.8,408.5,135.7,406.2,136.4,405.5z"/>
<path id="path882" class="st15" d="M124.8,400.4c0.4-0.3,0.2-0.7,0.4-1c0.8-1.2,1.9-2.3,1.9-3.8c0-0.2-0.3-0.5-0.6-0.3
	c-0.2,0.2-0.5,0.3-0.6,0.4c-1.7,2.1-2.9,4.4-4.2,6.8c-0.2,0.3-1.1,4.1-0.9,4.2c0.2,0.1,1.7-3.5,1.9-3.6
	C123.8,402.5,123.8,401.1,124.8,400.4z"/>
<path id="path886" class="st15" d="M139.1,417.1c0.4-0.7,1.7-1.8,1.6-2.5c-0.1-0.8,0.3-2-0.5-1.4c-1.1,0.8-4,2-4.3,6.9
	C136,420.6,138.6,418.3,139.1,417.1z"/>
<path id="path890" class="st15" d="M151.5,402.4c0.3-0.6,0.9-0.2,1.3-0.4c0.6-0.3,1.1-0.8,1.3-1.4c0.8-1.8,2.3-3.4,2.5-5.4
	c-1.3-1.2-1.9,0.5-2.4,1.4c-1.1-1.4-2,0.2-3.1,0.6c-0.1,0-0.2-0.3-0.3-0.2c-1,0.4-1.6,1.3-2.4,2c-0.1,0.1-0.5,0-0.6,0.1
	c-0.6,0.5-1.4,0.8-1.6,1.4c-0.9,2.3-3.6,4.1-5.2,10.5c0.3,0.8,3.9-5.7,4.3-6.3c0.7-1,0.8,1.4,1.9,0.9c0,0,0.2,0.2,0.3,0.3
	c0.2-0.2,0.4-0.4,0.7-0.3c0-0.3-0.1-0.8,0.1-1c1.1-0.8,1-1.7,1.7-2.8C150.2,402.4,151.1,401.8,151.5,402.4z"/>
<path id="path894" class="st15" d="M202.6,448.9c0,0,6.3-17.4,2.6-27c0,0,9.7,18.5,5.8,28c0,0-0.3-8.9-3.8-13.2
	C207.2,436.8,203.8,447.7,202.6,448.9z"/>
<path id="path898" class="st15" d="M189.9,446.7c0,0,4.6-7.5-2.2-23.2c0,0-0.7,17.4-6.5,26.8C181.2,450.3,193.4,433,189.9,446.7z"/>
<path id="path902" class="st15" d="M181.4,445c0,0-0.2-17.1,0.2-19.7c0,0-3.2,14.2-12,22.4C169.6,447.7,181.9,437.5,181.4,445z"/>
<path id="path906" class="st15" d="M173.2,417.6c0,0,5.1,11.6-3.4,27.3c0,0,5.5-10.4,1.4-16.4C171.1,428.6,173.4,425.7,173.2,417.6z
	"/>
<path id="path910" class="st15" d="M156.8,444.6c0,0-0.9-13.3,0.7-15.2c0,0,0.2-5.5-0.2-6.3c0,0,3.4-5.3,3.6,1c0,0,1.2,6.7,3.6,10.6
	c0,0,3.1,4.6,2.9,10.1C167.4,444.8,158.8,419,156.8,444.6z"/>
<path id="path914" class="st15" d="M153.7,421.1c0,0-5.6,9.2-7.2,25.5c0,0-1.2-5.3,2.1-17.6C148.6,428.9,152.2,415.8,153.7,421.1z"
	/>
<path id="path918" class="st15" d="M135.1,438c0,0,4.3-4.6,5.5-8.9c0,0,3.1-13.5-2.4-6.2c0,0,0.2,6.8-6.8,13.2
	C131.3,436.1,135.4,434.1,135.1,438z"/>
<path id="path922" class="st15" d="M130.1,433.7c0,0,2.9-14.9,3.6-15.6c0,0,1.5-2.9-0.9-0.2c0,0-7.5,16.4-10.9,22
	C121.9,440,128.8,432.2,130.1,433.7z"/>
<path id="path926" class="st15" d="M125.2,419.5c0,0,9.9-19.1-8.7,2.9C116.5,422.4,125.8,414.1,125.2,419.5z"/>
<path id="path930" class="st15" d="M112,407c0,0,4.1-16.1,6.3-15.9c0,0,7-7.7,1.4,1.4c0,0-5.1,8.2-4.6,16.6
	C115.1,409.1,114.6,400.9,112,407z"/>
<path id="path934" class="st15" d="M394.2,397.3c0,0-10.3-8.5-12.4-11.5c0,0,11.5,15.8,11.5,21.8
	C393.4,407.6,395.5,401.2,394.2,397.3z"/>
<path id="path938" class="st15" d="M398.9,378.5c0,0-17.9-12.8-20.9-19.2c0,0,22.6,25.2,22.6,29.1
	C400.7,388.3,401.1,380.6,398.9,378.5z"/>
<path id="path942" class="st15" d="M413.5,246.9c0,0-10.3-6.8-11.5-5.1c0,0,9,5.6,11.1,12.8C413,254.6,411.8,246.9,413.5,246.9z"/>
<path id="path946" class="st15" d="M420.7,315.7l-15-10.3c0,0,16.2,14.5,16.7,17.9L420.7,315.7z"/>
<path id="path950" class="st44" d="M86.8,296.5l18.8,4.1"/>
<path id="path954" class="st44" d="M129.8,434.9c0,0-0.4-3-8.1,6"/>
<path id="path958" class="st44" d="M134.5,439.2c0,0,1.7-5.6-3.8-1.7"/>
<path id="path962" class="st44" d="M180.6,446.4c0,0,1.3-9.4-8.5,1.7"/>
</svg>
